<svg width="1920" height="350" viewBox="0 0 1920 350" fill="none" xmlns="http://www.w3.org/2000/svg">
<rect width="1920" height="350" fill="#CFE2FF"/>
<g opacity="0.8">
<g opacity="0.6">
<path d="M226.53 235.84C226.53 235.84 226.75 222.29 226.4 221.52C225.94 220.5 224.42 219.92 224.42 219.92V206.59C224.42 205.05 223.17 203.81 221.64 203.81H221.35V177.74C221.35 175.77 222.13 173.88 223.53 172.49L226.83 169.19C227.5 168.52 227.88 167.61 227.88 166.67V163.64C227.88 162.42 226.89 161.43 225.67 161.43H224.81V147.62C224.81 145.93 223.44 144.55 221.74 144.55H216.95V126.52L220.27 123.2C221.46 122.01 222.13 120.4 222.13 118.71V109.45C222.13 107.76 220.76 106.38 219.06 106.38H216.76V90.6C218.35 89.39 219.62 87.76 220.28 85.88C221.56 82.27 220.54 77.93 217.73 75.33C216.02 73.75 213.81 72.85 211.88 71.56C210.1 70.38 208.47 68.63 208.2 66.55V66C208.2 66.09 208.18 66.18 208.17 66.27C208.16 66.18 208.14 66.09 208.14 66V66.55C207.87 68.63 206.24 70.37 204.46 71.56C202.52 72.85 200.31 73.75 198.61 75.33C195.8 77.93 194.78 82.27 196.06 85.88C196.89 88.25 198.67 90.21 200.86 91.44V106.39H198.56C196.87 106.39 195.49 107.76 195.49 109.46V118.72C195.49 120.4 196.16 122.02 197.35 123.21L200.67 126.53V144.56H195.88C194.19 144.56 192.81 145.93 192.81 147.63V161.44H191.95C190.73 161.44 189.74 162.43 189.74 163.65V166.68C189.74 167.63 190.12 168.54 190.79 169.2L194.09 172.5C195.48 173.89 196.27 175.78 196.27 177.75V180.81H68.95V177.75C68.95 175.78 69.73 173.89 71.13 172.5L74.43 169.2C75.1 168.53 75.48 167.62 75.48 166.68V163.65C75.48 162.43 74.49 161.44 73.27 161.44H72.4V147.63C72.4 145.94 71.03 144.56 69.33 144.56H64.54V126.52L67.86 123.2C69.05 122.01 69.72 120.4 69.72 118.71V109.45C69.72 107.76 68.35 106.38 66.65 106.38H64.35V90.6C65.94 89.39 67.2 87.76 67.87 85.88C69.15 82.27 68.13 77.93 65.32 75.33C63.61 73.75 61.4 72.85 59.47 71.56C57.69 70.38 56.06 68.63 55.79 66.55V66C55.79 66.09 55.77 66.18 55.76 66.27C55.75 66.18 55.73 66.09 55.73 66V66.55C55.46 68.63 53.83 70.37 52.05 71.56C50.11 72.85 47.9 73.75 46.2 75.33C43.39 77.93 42.37 82.27 43.65 85.88C44.49 88.25 46.26 90.21 48.45 91.44V106.39H46.15C44.46 106.39 43.08 107.76 43.08 109.46V118.72C43.08 120.4 43.75 122.02 44.94 123.21L48.26 126.53V144.56H43.44C41.75 144.56 40.37 145.93 40.37 147.63V161.44H39.51C38.29 161.44 37.3 162.43 37.3 163.65V166.68C37.3 167.63 37.68 168.54 38.35 169.2L41.65 172.5C43.04 173.89 43.83 175.78 43.83 177.75V203.82H43.53C41.99 203.82 40.75 205.07 40.75 206.6V219.93C40.75 219.93 39.54 220.57 38.95 221.59C38.36 222.61 38.64 235.85 38.64 235.85C36.63 235.85 35 237.48 35 239.49V240.41C35 241.3 35.33 242.16 35.92 242.83L42.48 250.23V334.23H48.75H54.94H57.82H70.29H99.75V290.89C99.75 285.65 101.11 280.44 104.04 276.1C105.79 273.52 107.99 271.25 110.56 269.46C114.93 266.42 120.15 264.81 124.62 261.92C127.63 259.98 130.35 257.12 131.59 253.86C131.75 253.45 131.89 253.03 131.99 252.6C132.1 253.03 132.24 253.44 132.39 253.86C133.63 257.12 136.35 259.98 139.36 261.92C143.83 264.81 149.05 266.42 153.42 269.46C155.98 271.24 158.19 273.51 159.94 276.1C162.87 280.44 164.23 285.65 164.23 290.89V334.23H194.88H207.35H210.23H215.22H222.69V250.23L229.25 242.83C229.84 242.16 230.17 241.3 230.17 240.41V239.49C230.17 237.47 228.54 235.84 226.53 235.84ZM213.82 112.84C213.82 111.46 214.81 110.31 216.15 109.92C217.5 110.31 218.48 111.46 218.48 112.84V119.23H213.81V112.84H213.82ZM206.45 112.84C206.45 111.46 207.44 110.31 208.78 109.92C210.13 110.31 211.11 111.46 211.11 112.84V119.23H206.44V112.84H206.45ZM206.45 153.4C206.45 152.03 207.44 150.87 208.78 150.48C210.13 150.87 211.11 152.02 211.11 153.4V159.79H206.44V153.4H206.45ZM199.09 119.23V112.84C199.09 111.46 200.08 110.31 201.42 109.92C202.77 110.31 203.75 111.46 203.75 112.84V119.23H199.09ZM199.09 153.4C199.09 152.03 200.08 150.87 201.42 150.48C202.77 150.87 203.75 152.02 203.75 153.4V159.79H199.08V153.4H199.09ZM185.68 198.95C185.68 197.25 187.05 195.88 188.75 195.88C190.44 195.88 191.82 197.25 191.82 198.95V205.34H185.68V198.95ZM166.76 198.95C166.76 197.25 168.13 195.88 169.83 195.88C171.52 195.88 172.9 197.25 172.9 198.95V205.34H166.76V198.95ZM138.38 198.95C138.38 197.25 139.75 195.88 141.45 195.88C143.15 195.88 144.52 197.25 144.52 198.95V205.34H138.38V198.95ZM119.46 198.95C119.46 197.25 120.83 195.88 122.53 195.88C124.22 195.88 125.6 197.25 125.6 198.95V205.34H119.46V198.95ZM91.07 198.95C91.07 197.25 92.44 195.88 94.14 195.88C95.83 195.88 97.21 197.25 97.21 198.95V205.34H91.07V198.95ZM72.15 198.95C72.15 197.25 73.52 195.88 75.22 195.88C76.91 195.88 78.29 197.25 78.29 198.95V205.34H72.15V198.95ZM61.42 112.84C61.42 111.46 62.41 110.31 63.75 109.92C65.1 110.31 66.08 111.46 66.08 112.84V119.23H61.41V112.84H61.42ZM61.42 153.4C61.42 152.03 62.41 150.87 63.75 150.48C65.1 150.87 66.08 152.02 66.08 153.4V159.79H61.41V153.4H61.42ZM54.05 112.84C54.05 111.46 55.04 110.31 56.38 109.92C57.73 110.31 58.71 111.46 58.71 112.84V119.23H54.04V112.84H54.05ZM54.05 153.4C54.05 152.03 55.04 150.87 56.38 150.48C57.73 150.87 58.71 152.02 58.71 153.4V159.79H54.04V153.4H54.05ZM46.68 119.23V112.84C46.68 111.46 47.67 110.31 49.01 109.92C50.36 110.31 51.34 111.46 51.34 112.84V119.23H46.68ZM46.68 159.8V153.41C46.68 152.04 47.67 150.88 49.01 150.49C50.36 150.88 51.34 152.03 51.34 153.41V159.8H46.68ZM87.47 233.73H82.65H81.28H76.46V229.42C76.46 227.2 77.54 225.12 79.34 223.86C73.09 220.36 81.26 215.55 81.94 215.16V215.13C81.94 215.13 81.95 215.14 81.96 215.14C81.97 215.13 81.98 215.13 81.98 215.13V215.16C82.65 215.54 90.83 220.36 84.58 223.86C86.38 225.12 87.46 227.2 87.46 229.42V233.73H87.47ZM87.75 205.34H81.61V198.95C81.61 197.25 82.98 195.88 84.68 195.88C86.38 195.88 87.75 197.25 87.75 198.95V205.34ZM101.76 233.73H96.94H95.57H90.75V229.42C90.75 227.2 91.83 225.12 93.63 223.86C87.38 220.36 95.55 215.55 96.23 215.16V215.13C96.23 215.13 96.24 215.14 96.25 215.14C96.26 215.13 96.27 215.13 96.27 215.13V215.16C96.94 215.54 105.12 220.36 98.87 223.86C100.67 225.12 101.75 227.2 101.75 229.42V233.73H101.76ZM100.53 205.34V198.95C100.53 197.25 101.9 195.88 103.6 195.88C105.29 195.88 106.67 197.25 106.67 198.95V205.34H100.53ZM116.05 233.73H111.23H109.86H105.04V229.42C105.04 227.2 106.12 225.12 107.92 223.86C101.67 220.36 109.84 215.55 110.52 215.16V215.13C110.52 215.13 110.53 215.14 110.54 215.14C110.55 215.13 110.56 215.13 110.56 215.13V215.16C111.23 215.54 119.41 220.36 113.16 223.86C114.96 225.12 116.04 227.2 116.04 229.42V233.73H116.05ZM116.13 205.34H109.99V198.95C109.99 197.25 111.36 195.88 113.06 195.88C114.75 195.88 116.13 197.25 116.13 198.95V205.34ZM130.34 233.73H125.52H124.15H119.33V229.42C119.33 227.2 120.41 225.12 122.21 223.86C115.96 220.36 124.13 215.55 124.81 215.16V215.13C124.81 215.13 124.82 215.14 124.83 215.14C124.84 215.13 124.85 215.13 124.85 215.13V215.16C125.52 215.54 133.7 220.36 127.45 223.86C129.25 225.12 130.33 227.2 130.33 229.42V233.73H130.34ZM128.92 205.34V198.95C128.92 197.25 130.29 195.88 131.99 195.88C133.68 195.88 135.06 197.25 135.06 198.95V205.34H128.92ZM144.63 233.73H139.81H138.44H133.62V229.42C133.62 227.2 134.7 225.12 136.5 223.86C130.25 220.36 138.42 215.55 139.1 215.16V215.13C139.1 215.13 139.11 215.14 139.12 215.14C139.13 215.13 139.14 215.13 139.14 215.13V215.16C139.81 215.54 147.99 220.36 141.74 223.86C143.54 225.12 144.62 227.2 144.62 229.42V233.73H144.63ZM147.84 198.95C147.84 197.25 149.21 195.88 150.91 195.88C152.6 195.88 153.98 197.25 153.98 198.95V205.34H147.84V198.95ZM158.92 233.73H154.1H152.73H147.91V229.42C147.91 227.2 148.99 225.12 150.79 223.86C144.54 220.36 152.71 215.55 153.39 215.16V215.13C153.39 215.13 153.4 215.14 153.41 215.14C153.42 215.13 153.43 215.13 153.43 215.13V215.16C154.1 215.54 162.28 220.36 156.03 223.86C157.83 225.12 158.91 227.2 158.91 229.42V233.73H158.92ZM157.3 205.34V198.95C157.3 197.25 158.67 195.88 160.37 195.88C162.06 195.88 163.44 197.25 163.44 198.95V205.34H157.3ZM173.21 233.73H168.39H167.02H162.2V229.42C162.2 227.2 163.28 225.12 165.08 223.86C158.83 220.36 167 215.55 167.68 215.16V215.13C167.68 215.13 167.69 215.14 167.7 215.14C167.71 215.13 167.72 215.13 167.72 215.13V215.16C168.39 215.54 176.57 220.36 170.32 223.86C172.12 225.12 173.2 227.2 173.2 229.42V233.73H173.21ZM176.22 198.95C176.22 197.25 177.59 195.88 179.29 195.88C180.98 195.88 182.36 197.25 182.36 198.95V205.34H176.22V198.95ZM181.32 233.73H176.5V229.42C176.5 227.2 177.58 225.12 179.38 223.86C173.13 220.36 181.3 215.55 181.98 215.16V215.13C181.98 215.13 181.99 215.14 182 215.14C182.01 215.13 182.02 215.13 182.02 215.13V215.16C182.69 215.54 190.87 220.36 184.62 223.86C186.42 225.12 187.5 227.2 187.5 229.42V233.73H182.68H181.32ZM218.49 159.8H213.82V153.41C213.82 152.04 214.81 150.88 216.15 150.49C217.5 150.88 218.48 152.03 218.48 153.41V159.8H218.49Z" fill="url(#paint0_linear_41_491)"/>
</g>
<g opacity="0.4">
<path d="M83.71 190.65C83.72 190.66 83.73 190.68 83.75 190.7H110.14C110.15 190.69 110.16 190.67 110.18 190.65L113.14 187.69C113.74 187.09 114.08 186.27 114.08 185.42V182.7C114.08 181.61 113.19 180.72 112.1 180.72H111.32V168.32C111.32 166.8 110.09 165.56 108.57 165.56H104.26V149.37L107.24 146.39C108.31 145.32 108.91 143.87 108.91 142.36V134.04C108.91 132.52 107.68 131.28 106.15 131.28H104.08V117.13C105.51 116.05 106.64 114.58 107.24 112.89C108.39 109.65 107.47 105.75 104.95 103.42C103.42 102 101.43 101.19 99.69 100.04C98.09 98.9798 96.63 97.4098 96.38 95.5398V95.0498C96.38 95.1298 96.36 95.2098 96.35 95.2998C96.34 95.2198 96.33 95.1398 96.32 95.0498V95.5398C96.08 97.4098 94.61 98.9698 93.01 100.04C91.27 101.2 89.29 102.01 87.75 103.42C85.22 105.75 84.31 109.65 85.46 112.89C86.21 115.01 87.8 116.78 89.77 117.88V131.31H87.7C86.18 131.31 84.94 132.54 84.94 134.07V142.39C84.94 143.9 85.54 145.35 86.61 146.42L89.59 149.4V165.59H85.29C83.77 165.59 82.54 166.82 82.54 168.35V180.75H81.77C80.68 180.75 79.79 181.64 79.79 182.73V185.45C79.79 186.3 80.13 187.12 80.73 187.72L83.71 190.65ZM101.47 137.1C101.47 135.87 102.35 134.83 103.57 134.48C104.78 134.83 105.67 135.86 105.67 137.1V142.84H101.48V137.1H101.47ZM101.47 173.52C101.47 172.29 102.35 171.25 103.57 170.9C104.78 171.25 105.67 172.28 105.67 173.52V179.26H101.48V173.52H101.47ZM94.85 137.1C94.85 135.87 95.73 134.83 96.95 134.48C98.16 134.83 99.05 135.86 99.05 137.1V142.84H94.86V137.1H94.85ZM94.85 173.52C94.85 172.29 95.73 171.25 96.95 170.9C98.16 171.25 99.05 172.28 99.05 173.52V179.26H94.86V173.52H94.85ZM88.24 142.84V137.1C88.24 135.87 89.12 134.83 90.34 134.48C91.55 134.83 92.44 135.86 92.44 137.1V142.84H88.24ZM88.24 173.52C88.24 172.29 89.12 171.25 90.34 170.9C91.55 171.25 92.44 172.28 92.44 173.52V179.26H88.25V173.52H88.24Z" fill="url(#paint1_linear_41_491)"/>
</g>
<g opacity="0.4">
<path d="M159.75 190.65C159.76 190.66 159.77 190.68 159.79 190.7H186.18C186.19 190.69 186.2 190.67 186.22 190.65L189.18 187.69C189.78 187.09 190.12 186.27 190.12 185.42V182.7C190.12 181.61 189.23 180.72 188.14 180.72H187.36V168.32C187.36 166.8 186.13 165.56 184.61 165.56H180.31V149.37L183.29 146.39C184.36 145.32 184.96 143.87 184.96 142.36V134.04C184.96 132.52 183.73 131.28 182.21 131.28H180.14V117.13C181.57 116.05 182.7 114.58 183.3 112.89C184.45 109.65 183.53 105.75 181.01 103.42C179.48 102 177.49 101.19 175.75 100.04C174.15 98.9798 172.69 97.4098 172.44 95.5398V95.0498C172.44 95.1298 172.42 95.2098 172.41 95.2998C172.4 95.2198 172.39 95.1398 172.38 95.0498V95.5398C172.14 97.4098 170.67 98.9698 169.07 100.04C167.33 101.2 165.35 102.01 163.81 103.42C161.28 105.75 160.37 109.65 161.52 112.89C162.27 115.01 163.86 116.78 165.83 117.88V131.31H163.76C162.24 131.31 161 132.54 161 134.07V142.39C161 143.9 161.6 145.35 162.67 146.42L165.65 149.4V165.59H161.35C159.83 165.59 158.6 166.82 158.6 168.35V180.75H157.82C156.73 180.75 155.84 181.64 155.84 182.73V185.45C155.84 186.3 156.18 187.12 156.78 187.72L159.75 190.65ZM177.51 137.1C177.51 135.87 178.39 134.83 179.61 134.48C180.82 134.83 181.71 135.86 181.71 137.1V142.84H177.52V137.1H177.51ZM177.51 173.52C177.51 172.29 178.39 171.25 179.61 170.9C180.82 171.25 181.71 172.28 181.71 173.52V179.26H177.52V173.52H177.51ZM170.89 137.1C170.89 135.87 171.77 134.83 172.99 134.48C174.2 134.83 175.09 135.86 175.09 137.1V142.84H170.9V137.1H170.89ZM170.89 173.52C170.89 172.29 171.77 171.25 172.99 170.9C174.2 171.25 175.09 172.28 175.09 173.52V179.26H170.9V173.52H170.89ZM164.28 142.84V137.1C164.28 135.87 165.16 134.83 166.38 134.48C167.59 134.83 168.48 135.86 168.48 137.1V142.84H164.28ZM164.28 173.52C164.28 172.29 165.16 171.25 166.38 170.9C167.59 171.25 168.48 172.28 168.48 173.52V179.26H164.29V173.52H164.28Z" fill="url(#paint2_linear_41_491)"/>
</g>
</g>
<g opacity="0.28">
<path d="M417.75 68.196V55.606H413.96V45.676H408.51V29.286H390.99V25.366H386.28C386.01 25.046 382.57 21.096 374.9 19.176V17.056C371.45 16.136 368.11 15.936 365.35 16.016C361.19 16.146 358.34 16.916 358.34 16.916V19.126C359.24 18.886 360.13 18.696 361.01 18.546C352.66 20.036 348.42 24.996 348.11 25.356H343.62V29.276H326.57V45.666H322.78V55.596H318.04V68.186H311V72.806L313.46 76.586L315.84 80.256L315.85 76.046H315.86V119.226H315.04L315.8 121.306H315.86V138.016H315.04L315.84 140.486H315.86V166.196L314.78 166.206L315.85 168.496H315.87V176.486H349.63V121.626C349.63 110.586 358.58 101.636 369.62 101.636C380.66 101.636 389.61 110.586 389.61 121.626V176.486H423.37V168.496H423.55L424.62 166.206L423.38 166.196V140.486H423.56L424.36 138.016H423.38V121.306H423.58L424.36 119.226H423.38V78.806V78.716L423.4 80.596L425.57 77.116L428.24 72.826V68.206H417.75V68.196ZM366.12 18.126C365.94 18.126 365.76 18.126 365.57 18.126C366.34 18.106 367.09 18.116 367.8 18.146C371.81 18.316 374.67 19.096 374.88 19.156C372.41 18.546 369.51 18.136 366.12 18.126Z" fill="url(#paint3_linear_41_491)"/>
</g>
<g opacity="0.28">
<path d="M1530.74 99.6065V98.0065H1529.67V89.8365V86.0065H1532.47V83.0565L1530.13 81.7365H1529.67V79.0965H1530.74V77.6765H1529.67V74.9265H1477.5H1473.19V58.9065H1474.55V56.3165H1472.49V38.2365H1474.55V35.6465H1472.64C1472.65 35.6165 1472.66 35.5765 1472.67 35.5465C1472.78 35.0265 1472.79 34.5065 1472.73 33.9965C1472.62 32.9565 1472.17 31.9265 1471.59 30.8865C1471.01 29.8465 1470.29 28.8165 1469.38 27.7765C1468.54 26.8565 1467.65 25.9465 1466.43 25.0265C1467.09 24.7865 1467.55 24.1165 1467.45 23.3465C1467.36 22.6965 1466.84 22.1465 1466.19 22.0265C1465.2 21.8465 1464.34 22.6065 1464.34 23.5665C1464.34 24.2565 1464.8 24.8465 1465.42 25.0465C1464.21 25.9565 1463.32 26.8665 1462.49 27.7765C1461.59 28.8165 1460.86 29.8465 1460.28 30.8865C1459.7 31.9265 1459.25 32.9565 1459.14 33.9965C1459.08 34.5165 1459.09 35.0365 1459.2 35.5465C1459.21 35.5765 1459.22 35.6165 1459.23 35.6465H1457.47V38.2365H1459.68V49.2965H1429.35V49.1665C1429.35 48.4165 1428.85 47.7265 1428.11 47.5965C1427.14 47.4265 1426.3 48.1565 1426.3 49.0965V49.2965H1396.54V38.2365H1398.6V35.6465H1396.69C1396.7 35.6165 1396.71 35.5765 1396.72 35.5465C1396.83 35.0265 1396.84 34.5065 1396.78 33.9965C1396.67 32.9565 1396.22 31.9265 1395.64 30.8865C1395.06 29.8465 1394.34 28.8165 1393.43 27.7765C1392.59 26.8565 1391.7 25.9465 1390.48 25.0265C1391.14 24.7865 1391.6 24.1165 1391.5 23.3465C1391.41 22.6965 1390.89 22.1465 1390.24 22.0265C1389.25 21.8465 1388.39 22.6065 1388.39 23.5665C1388.39 24.2565 1388.85 24.8465 1389.47 25.0465C1388.26 25.9565 1387.37 26.8665 1386.54 27.7765C1385.64 28.8165 1384.91 29.8465 1384.33 30.8865C1383.75 31.9265 1383.3 32.9565 1383.19 33.9965C1383.13 34.5165 1383.14 35.0365 1383.25 35.5465C1383.26 35.5765 1383.27 35.6165 1383.28 35.6465H1381.52V38.2365H1383.73V56.3165H1381.52V58.9065H1383.01V74.9265H1378.17H1326V77.6765H1324.93V79.0965H1326V81.7365H1325.54L1323.2 83.0565V86.0065H1326V89.8365V98.0065H1324.93V99.6065H1317V101.867L1317.01 101.877L1317.08 101.947L1326 111.167V118.647H1325.54V119.567H1326V127.097H1325.54V128.017H1326V135.547H1325.54V136.467H1326V143.997H1325.54V144.917H1326V152.437H1325.54V153.357H1326V170.747H1344.91H1351.88V170.797H1352.49V170.747H1355.73V151.707C1355.73 149.177 1357.79 147.067 1360.53 146.547C1363.24 147.067 1365.26 149.147 1365.26 151.647V170.757H1367.74V170.807H1368.35V170.757H1376.03H1377.66L1377.58 171.337H1402.8L1402.72 170.717H1405.77V170.587H1407.91L1408 139.037C1408 139.037 1407.89 117.297 1427.45 112.327C1427.52 112.307 1427.59 112.297 1427.66 112.277C1427.73 112.297 1427.8 112.307 1427.87 112.327C1447.55 117.027 1447.42 139.037 1447.42 139.037V170.587L1451.54 170.547V170.717H1453.63L1453.55 171.337H1478.77L1478.69 170.757H1479.66H1487.34V170.807H1487.95V170.757H1490.43V151.647C1490.43 149.147 1492.46 147.067 1495.16 146.547C1497.91 147.067 1499.96 149.177 1499.96 151.707V170.747H1503.2V170.797H1503.81V170.747H1510.78H1529.69V144.917H1530.15V143.997H1529.69V136.467H1530.15V135.547H1529.69V128.017H1530.15V127.097H1529.69V119.567H1530.15V118.647H1529.69V111.167L1538.61 101.947L1538.68 101.877L1538.69 101.867V99.6065H1530.74Z" fill="url(#paint4_linear_41_491)"/>
</g>
<g opacity="0.4">
<path d="M1671.71 141.9L1670.69 169.43H1682.41L1681.39 141.9C1681.43 141.84 1682.19 140.87 1684.69 140.87C1684.69 140.87 1684.13 139.65 1681.28 139.01L1680.53 118.68H1680.96C1681.36 118.68 1681.69 118.35 1681.69 117.95C1681.69 117.55 1681.36 117.22 1680.96 117.22H1680.48L1680.24 111.93C1680.34 111.8 1681.12 110.92 1683.52 110.92C1683.52 110.92 1683.7 109.7 1680.85 109.06V98.6H1682.27V96.71H1680.85C1680.85 96.71 1681.53 91.88 1677.65 89.5C1677.74 89.56 1677.84 89.61 1677.92 89.66H1677.93C1677.93 89.66 1677.95 88.02 1677.07 87.5C1677.11 87.53 1677.16 87.54 1677.2 87.57C1677.2 87.57 1677.29 85.71 1676.91 84.47C1676.91 84.49 1676.92 84.5 1676.93 84.51L1676.48 72L1676.03 84.52V84.51C1675.67 85.75 1675.76 87.58 1675.76 87.58C1675.8 87.55 1675.85 87.53 1675.89 87.51C1675.01 88.03 1675.04 89.67 1675.04 89.67H1675.05C1675.12 89.62 1675.21 89.58 1675.28 89.53C1671.45 91.92 1672.13 96.72 1672.13 96.72H1670.71V98.61H1672.13V109.06C1669.28 109.7 1669.46 110.92 1669.46 110.92C1672.04 110.92 1672.76 111.96 1672.76 111.96H1672.82L1672.63 117.23H1672.14C1671.74 117.23 1671.41 117.56 1671.41 117.96C1671.41 118.36 1671.74 118.69 1672.14 118.69H1672.57L1671.81 139C1668.95 139.64 1668.4 140.86 1668.4 140.86C1670.99 140.86 1671.71 141.9 1671.71 141.9Z" fill="url(#paint5_linear_41_491)"/>
</g>
<g opacity="0.4">
<path d="M1798.04 141.9L1797.02 169.43H1808.74L1807.72 141.9C1807.76 141.84 1808.52 140.87 1811.02 140.87C1811.02 140.87 1810.46 139.65 1807.61 139.01L1806.86 118.68H1807.29C1807.69 118.68 1808.02 118.35 1808.02 117.95C1808.02 117.55 1807.69 117.22 1807.29 117.22H1806.81L1806.57 111.93C1806.67 111.8 1807.45 110.92 1809.85 110.92C1809.85 110.92 1810.03 109.7 1807.18 109.06V98.6H1808.6V96.71H1807.18C1807.18 96.71 1807.86 91.88 1803.98 89.5C1804.07 89.56 1804.17 89.61 1804.25 89.66H1804.26C1804.26 89.66 1804.28 88.02 1803.4 87.5C1803.44 87.53 1803.49 87.54 1803.53 87.57C1803.53 87.57 1803.62 85.71 1803.24 84.47C1803.24 84.49 1803.25 84.5 1803.26 84.51L1802.81 72L1802.36 84.52V84.51C1802 85.75 1802.09 87.58 1802.09 87.58C1802.13 87.55 1802.18 87.53 1802.22 87.51C1801.34 88.03 1801.37 89.67 1801.37 89.67H1801.38C1801.45 89.62 1801.54 89.58 1801.61 89.53C1797.78 91.92 1798.46 96.72 1798.46 96.72H1797.04V98.61H1798.46V109.06C1795.61 109.7 1795.79 110.92 1795.79 110.92C1798.37 110.92 1799.09 111.96 1799.09 111.96H1799.15L1798.96 117.23H1798.47C1798.07 117.23 1797.74 117.56 1797.74 117.96C1797.74 118.36 1798.07 118.69 1798.47 118.69H1798.9L1798.14 139C1795.28 139.64 1794.73 140.86 1794.73 140.86C1797.32 140.86 1798.04 141.9 1798.04 141.9Z" fill="url(#paint6_linear_41_491)"/>
</g>
<g opacity="0.4">
<path d="M1617.88 175.88L1616.47 213.78H1632.6L1631.2 175.87C1631.26 175.79 1632.3 174.45 1635.74 174.45C1635.74 174.45 1634.98 172.77 1631.05 171.88L1630.02 143.89H1630.61C1631.17 143.89 1631.61 143.44 1631.61 142.89C1631.61 142.33 1631.16 141.89 1630.61 141.89H1629.94L1629.61 134.61C1629.75 134.44 1630.82 133.22 1634.13 133.22C1634.13 133.22 1634.38 131.54 1630.46 130.66V116.26H1632.42V113.66H1630.46C1630.46 113.66 1631.4 107.01 1626.06 103.73C1626.18 103.81 1626.32 103.88 1626.44 103.96H1626.45C1626.45 103.96 1626.48 101.7 1625.27 100.98C1625.33 101.02 1625.4 101.04 1625.45 101.08C1625.45 101.08 1625.57 98.5201 1625.06 96.8101C1625.07 96.8301 1625.08 96.8501 1625.08 96.8701L1624.45 79.6401L1623.83 96.8701C1623.83 96.8601 1623.83 96.8601 1623.84 96.8601C1623.34 98.5601 1623.46 101.08 1623.46 101.08C1623.51 101.04 1623.58 101.02 1623.64 100.98C1622.43 101.7 1622.46 103.95 1622.46 103.95H1622.47C1622.57 103.88 1622.69 103.82 1622.79 103.76C1617.51 107.05 1618.45 113.66 1618.45 113.66H1616.49V116.26H1618.45V130.65C1614.52 131.53 1614.77 133.21 1614.77 133.21C1618.33 133.21 1619.31 134.64 1619.31 134.64H1619.39L1619.13 141.89H1618.46C1617.91 141.89 1617.46 142.34 1617.46 142.89C1617.46 143.44 1617.91 143.89 1618.46 143.89H1619.06L1618.02 171.88C1614.09 172.76 1613.33 174.45 1613.33 174.45C1616.9 174.45 1617.88 175.88 1617.88 175.88Z" fill="url(#paint7_linear_41_491)"/>
</g>
<g opacity="0.4">
<path d="M1837.88 175.88L1836.47 213.78H1852.6L1851.2 175.87C1851.26 175.79 1852.3 174.45 1855.74 174.45C1855.74 174.45 1854.98 172.77 1851.05 171.88L1850.02 143.89H1850.61C1851.17 143.89 1851.61 143.44 1851.61 142.89C1851.61 142.33 1851.16 141.89 1850.61 141.89H1849.94L1849.61 134.61C1849.75 134.44 1850.82 133.22 1854.13 133.22C1854.13 133.22 1854.38 131.54 1850.46 130.66V116.26H1852.42V113.66H1850.46C1850.46 113.66 1851.4 107.01 1846.06 103.73C1846.18 103.81 1846.32 103.88 1846.44 103.96H1846.45C1846.45 103.96 1846.48 101.7 1845.27 100.98C1845.33 101.02 1845.4 101.04 1845.45 101.08C1845.45 101.08 1845.57 98.5201 1845.06 96.8101C1845.07 96.8301 1845.08 96.8501 1845.08 96.8701L1844.45 79.6401L1843.83 96.8701C1843.83 96.8601 1843.83 96.8601 1843.84 96.8601C1843.34 98.5601 1843.46 101.08 1843.46 101.08C1843.51 101.04 1843.58 101.02 1843.64 100.98C1842.43 101.7 1842.46 103.95 1842.46 103.95H1842.47C1842.57 103.88 1842.69 103.82 1842.79 103.76C1837.51 107.05 1838.45 113.66 1838.45 113.66H1836.49V116.26H1838.45V130.65C1834.52 131.53 1834.77 133.21 1834.77 133.21C1838.33 133.21 1839.31 134.64 1839.31 134.64H1839.39L1839.13 141.89H1838.46C1837.91 141.89 1837.46 142.34 1837.46 142.89C1837.46 143.44 1837.91 143.89 1838.46 143.89H1839.06L1838.02 171.88C1834.09 172.76 1833.33 174.45 1833.33 174.45C1836.9 174.45 1837.88 175.88 1837.88 175.88Z" fill="url(#paint8_linear_41_491)"/>
</g>
<g opacity="0.49">
<path d="M1586.62 209.24H1585.27L1585.08 171.51H1586.62C1587.38 171.51 1588 170.89 1588 170.13C1588 169.37 1587.38 168.75 1586.62 168.75H1586.57C1586.73 168.33 1586.87 167.9 1586.98 167.47C1587.92 163.7 1587.05 159.65 1584.14 157.39C1582.57 156.18 1580.77 155.41 1578.97 154.76C1575.1 153.36 1573.51 151.19 1572.79 149.66C1572.69 149.45 1572.61 149.26 1572.54 149.08C1572.47 149.26 1572.39 149.46 1572.29 149.66C1571.58 151.19 1569.98 153.35 1566.11 154.76C1564.31 155.41 1562.51 156.18 1560.94 157.39C1558.02 159.65 1557.15 163.7 1558.1 167.47C1558.21 167.91 1558.35 168.34 1558.51 168.75H1558.38C1557.62 168.75 1557 169.37 1557 170.13C1557 170.89 1557.62 171.51 1558.38 171.51H1560.4L1560.21 209.24H1558.38C1557.62 209.24 1557 209.86 1557 210.62C1557 211.38 1557.62 212 1558.38 212H1560.2L1560 250.93H1585.47L1585.27 212H1586.61C1587.37 212 1587.99 211.38 1587.99 210.62C1588 209.85 1587.39 209.24 1586.62 209.24ZM1577.25 190.85H1568.24V179.86C1568.24 177.37 1570.26 175.35 1572.75 175.35C1575.24 175.35 1577.26 177.37 1577.26 179.86V190.85H1577.25Z" fill="url(#paint9_linear_41_491)"/>
</g>
<g opacity="0.6">
<path d="M1883.39 197.58H1883.34C1883.5 197.18 1883.63 196.76 1883.74 196.34C1884.65 192.7 1883.81 188.78 1880.99 186.6C1879.48 185.43 1877.73 184.69 1876 184.06C1872.26 182.7 1870.72 180.61 1870.03 179.13C1869.94 178.93 1869.86 178.74 1869.79 178.57C1869.72 178.74 1869.65 178.93 1869.55 179.13C1868.86 180.61 1867.32 182.7 1863.58 184.06C1861.84 184.69 1860.1 185.43 1858.59 186.6C1855.77 188.78 1854.93 192.7 1855.84 196.34C1855.95 196.76 1856.08 197.18 1856.24 197.58H1856.11C1855.37 197.58 1854.78 198.18 1854.78 198.91C1854.78 199.65 1855.38 200.24 1856.11 200.24H1858.06L1857.96 220.49H1836.8V213.54H1831.52V199.33H1832.68C1833.96 199.33 1835 198.29 1835 197.01C1835 195.73 1833.96 194.69 1832.68 194.69C1840.76 178.07 1818.13 179.32 1817.57 167.96C1816.67 180.49 1796.34 176.82 1802.46 194.69C1801.18 194.69 1800.14 195.73 1800.14 197.01C1800.14 198.29 1801.18 199.33 1802.46 199.33H1803.62V213.54H1799C1798.99 213.54 1798.99 213.52 1798.98 213.52H1795.22V190.64H1783.9C1787.66 187.18 1790.37 182.36 1791.79 177.3C1795.01 165.82 1792.04 153.49 1782.08 146.61C1776.73 142.92 1770.58 140.58 1764.44 138.6C1751.23 134.33 1745.8 127.74 1743.36 123.08C1743.03 122.45 1742.75 121.85 1742.52 121.3C1742.29 121.85 1742.01 122.45 1741.68 123.08C1739.24 127.74 1733.81 134.32 1720.6 138.6C1714.47 140.58 1708.31 142.92 1702.96 146.61C1693.01 153.49 1690.03 165.82 1693.25 177.3C1694.67 182.36 1697.38 187.18 1701.14 190.64H1688.29V211.44C1688.31 211.4 1688.38 211.39 1688.38 211.45V213.88H1684.26C1684.25 213.88 1684.25 213.9 1684.24 213.9H1679.32V196.32H1680.48C1681.76 196.32 1682.8 195.28 1682.8 194C1682.8 192.72 1681.76 191.68 1680.48 191.68C1688.56 175.06 1665.93 176.31 1665.37 164.95C1664.47 177.48 1644.14 173.81 1650.26 191.68C1648.98 191.68 1647.94 192.72 1647.94 194C1647.94 195.28 1648.98 196.32 1650.26 196.32H1651.42V213.9H1646.44V220.85H1625.22L1625.12 200.24H1626.61C1627.35 200.24 1627.94 199.64 1627.94 198.91C1627.94 198.17 1627.34 197.58 1626.61 197.58H1626.56C1626.72 197.18 1626.85 196.76 1626.96 196.34C1627.87 192.7 1627.03 188.78 1624.21 186.6C1622.7 185.43 1620.95 184.69 1619.22 184.06C1615.48 182.7 1613.94 180.61 1613.25 179.13C1613.16 178.93 1613.08 178.74 1613.01 178.57C1612.94 178.74 1612.87 178.93 1612.77 179.13C1612.08 180.61 1610.54 182.7 1606.8 184.06C1605.06 184.69 1603.32 185.43 1601.81 186.6C1598.99 188.78 1598.15 192.7 1599.06 196.34C1599.17 196.76 1599.3 197.18 1599.46 197.58H1599.33C1598.59 197.58 1598 198.18 1598 198.91C1598 199.65 1598.6 200.24 1599.33 200.24H1601.28L1601.18 220.85H1600.96V309.17H1613.9V290.4C1613.9 278.94 1625.52 278.15 1625.52 276.63C1625.52 278.15 1637.14 278.93 1637.14 290.4V309.17H1653.41V290.4C1653.41 278.94 1666.19 278.15 1666.19 276.63C1666.19 278.15 1678.97 278.93 1678.97 290.4V309.17H1711.51V255.71C1711.51 228.61 1741.73 226.75 1741.73 223.17C1741.73 226.75 1771.95 228.61 1771.95 255.71V309.17H1795.33V308.8H1804.22V290.03C1804.22 278.57 1817 277.78 1817 276.26C1817 277.78 1829.78 278.56 1829.78 290.03V308.8H1846.05V290.03C1846.05 278.57 1857.67 277.78 1857.67 276.26C1857.67 277.78 1869.29 278.56 1869.29 290.03V308.8H1882.23V220.5H1881.96L1881.86 200.25H1883.35C1884.09 200.25 1884.68 199.65 1884.68 198.92C1884.73 198.18 1884.13 197.58 1883.39 197.58ZM1658.43 213.91H1653.78V203.3C1653.78 202.02 1654.82 200.98 1656.1 200.98C1657.38 200.98 1658.42 202.02 1658.42 203.3V213.91H1658.43ZM1670.05 213.91H1660.75V205.63C1660.75 203.06 1662.83 200.98 1665.4 200.98C1667.97 200.98 1670.05 203.06 1670.05 205.63V213.91ZM1677.02 213.91H1672.37V203.3C1672.37 202.02 1673.41 200.98 1674.69 200.98C1675.97 200.98 1677.01 202.02 1677.01 203.3V213.91H1677.02ZM1805.95 213.55V206.31C1805.95 205.03 1806.99 203.99 1808.27 203.99C1809.55 203.99 1810.59 205.03 1810.59 206.31V213.55H1809.5H1805.95ZM1812.92 213.55V208.63C1812.92 206.06 1815 203.98 1817.57 203.98C1820.14 203.98 1822.22 206.06 1822.22 208.63V213.55H1821.13H1812.92ZM1824.54 213.55V206.31C1824.54 205.03 1825.58 203.99 1826.86 203.99C1828.14 203.99 1829.18 205.03 1829.18 206.31V213.55H1828.09H1824.54Z" fill="url(#paint10_linear_41_491)"/>
</g>
<defs>
<linearGradient id="paint0_linear_41_491" x1="132.585" y1="299.23" x2="132.585" y2="95.7396" gradientUnits="userSpaceOnUse">
<stop stop-color="#949494" stop-opacity="0"/>
<stop offset="1" stop-color="#949494"/>
</linearGradient>
<linearGradient id="paint1_linear_41_491" x1="96.9474" y1="175.897" x2="96.9474" y2="109.305" gradientUnits="userSpaceOnUse">
<stop stop-color="#949494" stop-opacity="0"/>
<stop offset="1" stop-color="#949494"/>
</linearGradient>
<linearGradient id="paint2_linear_41_491" x1="172.987" y1="175.897" x2="172.987" y2="109.305" gradientUnits="userSpaceOnUse">
<stop stop-color="#949494" stop-opacity="0"/>
<stop offset="1" stop-color="#949494"/>
</linearGradient>
<linearGradient id="paint3_linear_41_491" x1="369.617" y1="176.743" x2="369.617" y2="19.7699" gradientUnits="userSpaceOnUse">
<stop stop-color="#949494" stop-opacity="0"/>
<stop offset="1" stop-color="#949494"/>
</linearGradient>
<linearGradient id="paint4_linear_41_491" x1="1427.83" y1="170.034" x2="1427.83" y2="40.5318" gradientUnits="userSpaceOnUse">
<stop stop-color="#949494" stop-opacity="0"/>
<stop offset="1" stop-color="#949494"/>
</linearGradient>
<linearGradient id="paint5_linear_41_491" x1="1676.55" y1="167.434" x2="1676.55" y2="79.7513" gradientUnits="userSpaceOnUse">
<stop stop-color="#949494" stop-opacity="0"/>
<stop offset="1" stop-color="#949494"/>
</linearGradient>
<linearGradient id="paint6_linear_41_491" x1="1802.88" y1="167.434" x2="1802.88" y2="79.7513" gradientUnits="userSpaceOnUse">
<stop stop-color="#949494" stop-opacity="0"/>
<stop offset="1" stop-color="#949494"/>
</linearGradient>
<linearGradient id="paint7_linear_41_491" x1="1624.54" y1="182.767" x2="1624.54" y2="91.0272" gradientUnits="userSpaceOnUse">
<stop stop-color="#949494" stop-opacity="0"/>
<stop offset="1" stop-color="#949494"/>
</linearGradient>
<linearGradient id="paint8_linear_41_491" x1="1844.54" y1="182.767" x2="1844.54" y2="91.0272" gradientUnits="userSpaceOnUse">
<stop stop-color="#949494" stop-opacity="0"/>
<stop offset="1" stop-color="#949494"/>
</linearGradient>
<linearGradient id="paint9_linear_41_491" x1="1572.5" y1="234.434" x2="1572.5" y2="135.406" gradientUnits="userSpaceOnUse">
<stop stop-color="#949494" stop-opacity="0"/>
<stop offset="1" stop-color="#949494"/>
</linearGradient>
<linearGradient id="paint10_linear_41_491" x1="1741.38" y1="304.267" x2="1741.38" y2="121.723" gradientUnits="userSpaceOnUse">
<stop stop-color="#949494" stop-opacity="0"/>
<stop offset="1" stop-color="#949494"/>
</linearGradient>
</defs>
</svg>
