<svg width="204" height="248" viewBox="0 0 204 248" fill="none" xmlns="http://www.w3.org/2000/svg">
<g clip-path="url(#clip0_19_108)">
<path fill-rule="evenodd" clip-rule="evenodd" d="M140.48 184.104C143.517 183.673 155.034 176.995 158.015 175.027C164.599 170.688 167.382 168.209 172.803 163.236C176.935 159.434 181.484 154.171 185.121 148.966C188.874 143.66 192.139 138.028 194.878 132.138C200.759 119.579 204.204 104.295 203.988 88.0802C203.822 75.8734 201.532 65.5181 197.638 54.5436C196.979 52.6836 194.418 46.3564 193.579 45.3624C192.282 45.2578 192.366 45.7984 191.912 46.7982L165.121 104.091C162.725 109.195 163.55 108.009 165.121 113.682C168.422 125.769 168.179 138.545 164.422 150.499C160.665 162.452 153.551 173.08 143.922 181.124C143.316 181.627 142.838 181.996 142.205 182.505C141.25 183.255 140.725 183.377 140.495 184.092" fill="#030304"/>
<path fill-rule="evenodd" clip-rule="evenodd" d="M63.0943 183.726C62.3249 182.889 60.6171 181.776 59.7021 180.985C58.5713 180.009 57.5134 179.038 56.4381 178.059C50.3414 172.51 44.5594 163.887 41.2313 155.77C35.7437 142.4 34.8024 127.901 38.8358 113.096C40.7446 106.097 41.4324 109.05 39.0485 103.923C37.6701 100.956 36.4111 98.2818 35.0472 95.3725C32.334 89.5918 29.6791 84.0232 27.0417 78.2628C25.4913 74.8827 11.5959 44.8396 10.9985 44.2583C9.0372 46.1765 4.52588 59.8073 3.53794 63.3415C-4.58417 92.4226 1.64075 124.872 18.4999 148.414C26.1849 159.147 34.6392 167.488 45.661 174.795C46.6548 175.454 61.8178 184.627 63.0943 183.714" fill="#030304"/>
<path fill-rule="evenodd" clip-rule="evenodd" d="M40.1851 129.167C40.1851 137.852 41.3216 144.815 44.2942 152.349C48.9571 164.172 56.1495 173.106 66.3699 180.54C68.8683 182.301 71.4989 183.867 74.2385 185.225C75.6723 185.961 82.0692 188.867 83.2728 188.713L86.0413 173.373C66.5273 166.349 53.4742 146.379 56.0563 124.79C56.61 120.14 58.3148 116.653 59.6729 112.584C60.996 108.646 62.5056 104.737 63.8316 100.903C65.7754 95.2618 80.4109 54.7587 80.3119 53.8926C80.2361 53.2532 60.6259 12.3316 57.3968 5.42318C56.5867 3.67936 55.4559 1.64491 54.8293 -0.0117188C52.8943 0.22079 49.7352 3.62705 48.7414 5.1122C47.0604 7.72208 46.1662 10.7584 46.1652 13.8604C46.1856 17.5514 47.3484 19.7661 48.6394 22.5213C52.1074 29.9238 55.8697 38.114 59.4718 45.3566C60.7337 47.8939 61.8644 50.3236 63.0447 52.8928C64.1259 55.247 64.1667 54.471 63.2866 57.0867C59.2532 69.0871 54.4447 82.1715 50.0965 94.2882L41.3216 119.059C40.5056 121.434 40.1851 126.459 40.1851 129.17" fill="#030304"/>
<path fill-rule="evenodd" clip-rule="evenodd" d="M118.049 173.362C117.982 175.48 120.217 185.135 120.611 188.69C123.271 188.483 130.519 184.743 132.877 183.426C152.292 172.51 165.246 149.576 163.5 126.421C162.944 119.039 162.626 118.425 160.405 112.029L140.894 56.9065C140.311 55.1627 139.964 55.3487 140.812 53.6659C141.8 51.707 142.742 49.6784 143.698 47.6265C147.422 39.6252 151.211 31.6763 154.99 23.7943C157.083 19.4347 159.149 15.5402 157.488 9.64901C156.904 7.54742 155.886 5.59107 154.498 3.90604C153.597 2.84521 151.079 0.39515 149.386 0.0463867C148.672 1.85124 147.679 3.67934 146.886 5.3505C146.012 7.18732 145.254 8.83814 144.377 10.6662C142.651 14.2818 140.987 17.7665 139.274 21.4053L126.553 48.1758C125.795 49.719 124.571 51.9976 124.032 53.4886C123.65 54.5407 125.268 58.1388 125.696 59.342L140.189 100.168C142.503 106.634 146.921 117.862 147.679 124.291C149.751 141.929 142.028 158.388 128.371 167.828C123.709 171.06 118.504 173.039 118.049 173.35" fill="#030304"/>
<path fill-rule="evenodd" clip-rule="evenodd" d="M82.3286 214.678L90.3691 215.478L92.1526 201.736L95.0669 202.097L93.3387 215.489C94.2742 215.78 99.3771 215.85 100.514 215.73V201.957H103.215L103.247 215.725L110.443 215.495C110.763 214.402 109.088 204.23 108.872 202.059L111.786 201.736L113.511 214.815C113.634 215.21 113.581 215.065 113.695 215.257C114.835 215.187 120.398 214.806 121.124 214.556C121.532 214.414 121.415 214.574 121.485 214.117L108.28 139.081C107.648 135.538 108.216 135.448 109.737 133.068L117.737 120.844C118.337 119.533 117.446 118.35 116.085 118.603C115.047 118.792 100.289 125.683 99.5316 126.345C97.9346 127.749 97.8267 129.935 97.3867 132.382L84.8552 200.8C84.3248 203.634 82.5588 212.516 82.3286 214.678Z" fill="#030304"/>
<path fill-rule="evenodd" clip-rule="evenodd" d="M83.0251 214.243L89.9145 214.873L91.663 201.176L95.6061 201.6C95.6789 203.187 95.0378 206.617 94.8046 208.384C94.6356 209.659 93.9041 214.196 94.0557 215.103L99.9513 215.222V201.423H103.74L103.781 215.182L109.863 214.984L108.234 201.638L112.255 201.097L114.004 214.676L120.788 214.06C120.928 212.397 118.993 203.167 118.585 200.844L109.332 148.239C108.843 145.406 106.814 137.306 107.875 135.033C108.528 133.629 115.452 123.495 116.985 121.021C117.618 120.001 117.466 118.696 115.82 119.277L102.44 125.413C97.8879 127.447 98.6194 128.761 97.3371 135.791C95.743 144.531 94.111 153.198 92.5519 161.928L85.3507 201.123C84.9543 203.332 84.5638 205.434 84.1675 207.593C83.844 209.337 83.0484 212.624 83.0251 214.243Z" fill="#030304"/>
<path fill-rule="evenodd" clip-rule="evenodd" d="M15.4224 40.9682C15.4924 44.2117 16.6872 46.9233 17.8879 49.3734L24.9609 64.5097C28.5367 71.9674 32.0047 79.8873 35.5834 87.1793C36.822 89.7079 37.8799 92.2684 39.1185 94.7359L42.7322 102.228C43.1985 101.458 45.8097 93.7216 46.3576 92.2015C50.5512 80.5761 50.8514 82.3635 45.6844 71.6419C44.2272 68.6106 42.6302 65.2479 41.2838 62.205C38.5094 55.9069 35.3474 49.8122 32.5264 43.4822C31.1712 40.4421 29.6704 37.2451 28.1549 34.1818C27.4293 32.7403 24.3401 25.4743 23.5824 24.8931C22.848 25.1285 22.5187 25.8202 22.0903 26.3869C18.5232 31.104 15.4078 34.0801 15.4224 40.9682Z" fill="#030304"/>
<path fill-rule="evenodd" clip-rule="evenodd" d="M161.524 102.359C162.553 100.543 164.844 95.2938 165.971 92.9426C167.534 89.6817 168.935 86.5079 170.486 83.247C173.543 76.8065 176.405 70.2904 179.468 64.0156C181.117 60.6355 187.563 47.3563 188.26 44.5923C190.16 37.0648 186.584 32.2752 182.405 26.9914C181.863 26.3055 181.347 25.3842 180.604 25.0674C179.788 25.5615 172.269 42.3922 171.646 43.6681C168.591 49.9429 165.907 56.2672 162.885 62.3996L156.308 76.3909C155.556 77.9429 154.667 79.6431 154.649 81.7008C154.629 84.1014 158.464 93.9075 159.671 97.2934C160.172 98.7059 160.836 101.072 161.516 102.359" fill="#030304"/>
<path fill-rule="evenodd" clip-rule="evenodd" d="M100.4 73.8275C91.0073 74.772 83.3748 82.5466 84.252 93.0502C84.4616 95.367 85.1278 97.6198 86.2125 99.6793C87.2971 101.739 88.7789 103.564 90.5727 105.051C92.3665 106.539 94.437 107.658 96.6656 108.345C98.8941 109.032 101.237 109.273 103.559 109.056C112.722 108.224 120.581 100.089 119.588 89.7921C118.713 80.6778 110.62 72.7986 100.397 73.8275" fill="#030304"/>
<path fill-rule="evenodd" clip-rule="evenodd" d="M42.6506 100.903C43.2917 99.5083 43.8717 97.5697 44.3992 96.0904C45.7805 92.1348 49.4496 83.4913 48.9076 80.4599C48.6394 78.9544 47.6486 77.1234 47.0133 75.8098C46.2905 74.3014 45.5561 72.7755 44.8596 71.2351C40.7417 62.0656 36.2479 53.0762 32.0368 43.8136C30.6554 40.7648 29.2274 37.6696 27.811 34.7516L24.0982 26.8172C24.0108 26.637 23.9001 26.3812 23.8068 26.2185L23.4163 25.6982C22.8934 26.2691 22.4068 26.8719 21.9592 27.5031C17.9229 32.7345 14.3529 37.4341 16.626 44.8425C17.2905 47.0164 36.9007 88.839 38.2908 91.6349C39.4565 93.9862 41.6335 99.1566 42.6826 100.918" fill="#030304"/>
<path fill-rule="evenodd" clip-rule="evenodd" d="M161.687 100.854C162.544 98.5781 164.001 95.7996 165.071 93.4862L171.931 78.8817C173.036 76.4258 174.143 73.9787 175.335 71.5373C177.71 66.675 179.94 61.8214 182.192 56.9212C184.267 52.4105 188.17 45.5341 188.17 41.1484C188.17 37.3265 187.322 34.6963 185.41 31.9904L181.038 26.1777C180.648 25.7999 181.065 26.0789 180.546 25.8086C180.217 26.9392 179.089 29.2032 178.506 30.3396C176.314 34.734 174.403 39.39 172.124 43.9792C167.822 52.6401 163.646 62.4782 159.368 71.2699C158.642 72.758 157.94 74.2402 157.278 75.7341C154.364 82.2996 154.445 81.0934 158.018 90.9693C158.601 92.6143 159.213 94.3203 159.784 95.9333L161.058 99.5692C161.122 99.7973 161.202 100.021 161.297 100.238L161.428 100.496C161.498 100.631 161.586 100.755 161.69 100.865" fill="#030304"/>
<path fill-rule="evenodd" clip-rule="evenodd" d="M64.703 237.49L68.7218 237.612V233.192L64.7059 233.212L64.703 237.49ZM77.1616 230.251L36.0701 230.28C36.1896 231.053 37.3553 232.314 37.8333 233.16L39.7276 233.233C39.7042 234.578 39.9665 237.075 39.2292 237.883C38.4394 238.755 35.9623 238.633 35.0851 237.903C37.8712 235.808 36.0876 232.861 34.6246 231.625C32.2786 229.646 30.4397 229.98 27.1757 230.753L29.3702 233.724C30.4164 233.459 32.5176 232.364 33.558 233.215C34.7033 234.154 33.2229 235.194 32.5118 235.54C31.5967 235.988 30.0317 236.255 29.3061 236.633C29.855 237.593 30.4973 238.496 31.2237 239.33L33.8465 238.676C34.138 239.6 34.6392 240.577 33.9456 241.533C33.4385 242.231 32.2932 242.405 31.2295 242.077C29.3789 241.495 28.5833 239.842 27.5138 238.339L26.2898 238.996L26.179 239.077L25.8614 239.368C26.861 241.731 29.0933 244.454 31.69 245.088C35.563 246.032 38.0081 243.271 36.5889 239.813C37.7721 240.414 38.081 240.841 39.847 240.809L39.6285 245.82C40.1945 246.119 40.7423 246.451 41.2692 246.814C41.9074 247.262 42.0677 247.706 43.0848 247.735V233.189H46.9608V245.776C48.1265 246.538 49.5312 247.727 50.3822 247.753V233.189H61.5002V236.662C51.7694 233.125 51.5217 242.545 56.7586 247.346C57.4416 247.116 58.0943 246.805 58.7025 246.419C56.8577 244.015 53.6637 238.952 60.2033 238.862C60.3199 240.19 60.9202 240.897 61.5934 241.638C62.6368 242.8 62.4677 243.059 64.6826 243.05V240.548L68.8325 240.449L68.6169 245.733C69.0744 246.192 69.6893 246.462 70.246 246.826C71.0824 247.375 70.9017 247.698 72.0703 247.738V233.195H76.4417V245.907C78.5254 246.991 78.7586 247.782 79.8689 247.703V233.195H89.8066V236.831C88.5098 236.831 83.2437 236.54 82.553 237.101C81.0317 238.301 83.334 241.751 83.9344 242.417L85.715 242.292C85.6305 241.309 85.5576 240.719 85.782 239.784L89.9407 239.688L89.8096 245.858C90.3633 246.209 90.9111 246.486 91.4066 246.831C92.1526 247.358 92.1468 247.703 93.228 247.744V233.186C95.2476 233.204 94.2393 233.009 95.1777 234.023C95.6906 233.648 96.0753 233.198 96.7018 233.166L97.4712 233.352L97.716 237.778C95.9995 238.79 95.9004 239.388 97.8384 241.684C98.9021 242.943 98.7127 243.004 100.887 243.015V240.472H104.932L104.725 245.91C107.141 246.974 107.1 247.878 108.28 247.654V233.195H113.893C113.867 234.555 114.036 236.897 113.68 237.961C111.979 237.961 111.69 237.65 110.632 239.24C111.556 241.109 112.556 242.184 113.71 243.684C114.292 244.434 114.843 245.05 115.42 245.8C115.984 246.586 116.614 247.323 117.303 248.003C118.116 247.712 118.419 247.349 119.174 247.105C118.754 246.061 115.173 243.326 114.948 241.69C118.116 239.298 117.303 238.784 117.303 233.198H120.8C120.724 232.122 121.033 233.183 119.926 231.683C119.578 231.244 119.268 230.777 118.999 230.286C115.814 230.312 111.218 230.55 108.184 230.286C107.048 230.19 105.987 228.484 106.039 227.19C106.109 225.537 108.312 225.356 108.42 227.699L109.877 227.379C110.288 221.325 102.714 222.2 103.757 227.071C104.023 228.318 104.955 229.466 105.547 230.268H100.884C100.977 231.14 102.204 232.23 102.702 233.174H104.897V237.58H100.913C100.875 234.604 101.114 233.448 99.3393 231.829C97.4042 230.065 97.1477 230.117 93.9828 230.262C89.5939 230.46 83.7974 230.413 79.3852 230.245C78.3214 226.734 80.7257 225.772 84.1325 226.077C87.6588 226.397 88.8478 227.757 90.8558 228.931C91.2876 228.603 91.6261 228.168 91.8379 227.67C90.9403 227.179 90.0106 225.993 87.6501 224.763C84.3249 223.02 78.6653 222.27 76.6574 225.008C75.0196 227.245 76.264 228.603 77.1616 230.251Z" fill="#030304"/>
<path fill-rule="evenodd" clip-rule="evenodd" d="M52.0491 76.0655C53.1711 73.6213 56.7615 62.6963 58.1167 59.0342C59.6816 54.8229 58.6033 53.3349 57.085 49.9344C52.5445 39.7621 47.0803 28.5872 42.295 18.3103C41.1526 15.8515 39.812 12.5964 38.588 10.4282C37.2679 10.4282 33.1063 14.7878 32.2174 16.116C27.8722 22.6349 29.5567 28.5581 32.6021 34.6964L48.0857 67.8289C48.6948 69.1804 51.3992 75.3244 52.0491 76.0772" fill="#030304"/>
<path fill-rule="evenodd" clip-rule="evenodd" d="M152.146 76.1031C152.79 75.4724 158.91 61.8474 159.901 59.7868C163.803 51.6693 167.551 43.0984 171.447 35.1117C172.814 32.31 174.257 29.5896 174.513 25.9654C174.959 19.6266 172.004 15.302 167.673 11.855C167.05 11.358 166.648 10.7593 165.84 10.521C165.161 10.9424 162.553 17.0458 161.979 18.2083C157.054 28.2556 152.19 39.5352 147.253 49.7249C145.671 52.9888 144.586 54.7588 146.061 58.8625C147.469 62.7803 151.17 72.7724 152.146 76.1031Z" fill="#030304"/>
<path fill-rule="evenodd" clip-rule="evenodd" d="M51.8539 74.6531C52.3668 73.9556 54.6137 67.236 54.8614 66.5153C55.8435 63.6583 56.8286 61.0455 57.8194 58.1973C59.0288 54.7096 57.528 52.0241 56.1962 49.3648C54.9576 46.9089 53.8239 44.206 52.6087 41.6571L38.2791 11.2072L38.1888 11.1025C36.3382 12.1779 33.5259 15.1046 32.3602 16.9763C30.6672 19.777 29.928 23.0487 30.2532 26.3028C30.702 30.6101 35.1055 38.5531 37.026 42.8342C40.5902 50.7628 44.5157 58.6972 48.1673 66.6373C49.3534 69.2153 50.8922 72.1013 51.8539 74.6531Z" fill="#030304"/>
<path fill-rule="evenodd" clip-rule="evenodd" d="M152.353 74.615C156.847 64.5125 162.445 53.1079 167.216 42.8833C168.472 40.1833 169.611 37.6054 170.923 34.9431C173.837 29.0374 175.766 23.5008 171.783 17.0487C170.177 14.4475 168.245 13.0582 166.041 11.1865C165.709 11.4772 150.482 43.8599 148.087 49.2599C146.819 52.1256 145.152 54.2937 146.373 58.0197C147.014 59.9698 151.91 74.0425 152.368 74.6121" fill="#030304"/>
<path fill-rule="evenodd" clip-rule="evenodd" d="M123.892 230.777L125.798 234.047C126.672 233.439 126.905 233.044 127.684 233.175C128.412 233.303 127.858 233.175 128.138 233.352L128.374 237.776C126.658 238.787 126.559 239.386 128.497 241.682C129.56 242.94 129.371 243.001 131.545 243.013V240.47H135.59L135.383 245.908C137.799 246.971 137.758 247.875 138.939 247.651V233.195H142.855V245.742C143.354 246.227 143.899 246.425 144.479 246.855C145.059 247.285 145.321 247.782 146.274 247.698V233.192H151.843C151.817 234.552 151.986 236.895 151.63 237.959C149.928 237.959 149.64 237.648 148.582 239.237C149.509 241.106 150.505 242.182 151.662 243.681C152.245 244.431 152.793 245.047 153.373 245.797C153.935 246.584 154.564 247.321 155.253 248C156.066 247.71 156.369 247.346 157.124 247.102C156.704 246.059 153.122 243.324 152.898 241.688C156.066 239.296 155.253 238.781 155.253 233.195H166.009V235.927C162.18 235.898 158.549 235.709 158.03 239.415C157.64 242.208 159.875 245.887 161.454 247.367L163.436 246.495C162.623 245.265 160.988 243.644 161.029 241.388C161.075 238.799 163.672 238.857 165.983 238.897L165.919 245.873C166.47 246.163 166.892 246.437 167.493 246.835C168.157 247.276 168.338 247.707 169.364 247.759V233.247L172.972 233.204C172.875 232.187 172.074 231.951 171.124 230.315L131.536 230.28C131.63 231.152 132.856 232.245 133.355 233.186H135.549V237.592H131.551C131.507 234.314 131.697 233.233 129.68 231.591C127.815 230.071 126.567 229.475 123.892 230.771" fill="#030304"/>
<path fill-rule="evenodd" clip-rule="evenodd" d="M97.4392 75.8821L96.8942 75.8647L97.2002 75.9403C97.783 78.2276 98.293 80.6311 98.8438 83.0434C99.1732 84.4966 101.024 88.7108 100.983 89.4171C100.441 88.5103 99.928 87.3274 99.4354 86.2695C99.144 85.6708 98.9692 85.1389 98.6457 84.5082C97.9871 83.2207 94.1839 78.3206 93.7176 77.2423C93.6988 77.2739 93.6851 77.3082 93.6768 77.344L93.4291 77.501C93.5428 77.5678 93.5107 77.5271 93.6972 77.8119C94.9445 79.7098 96.3055 83.5288 98.6777 86.8449C99.1382 87.4872 100.33 89.0509 100.569 89.7309C99.7356 89.3357 97.7626 86.1096 95.746 84.4995C94.6822 83.6479 90.9403 80.2504 90.34 80.0063V80.0673C90.544 80.6166 94.2072 84.3832 94.9445 85.2987C95.7518 86.3131 97.8064 88.0162 98.9575 88.9346L100.184 90.1437C99.2169 89.8966 96.664 87.6326 94.1402 86.4555C93.0736 85.9614 88.3903 83.616 87.6384 83.5956L87.484 83.6421C89.693 84.6797 92.8288 87.3797 96.766 89.1177C97.3809 89.3909 97.7743 89.5798 98.4038 89.8472C100.152 90.5999 99.6599 90.2948 99.7939 90.7365C98.2056 90.0913 95.2447 88.9404 93.4291 88.6265C91.7534 88.3359 87.8337 87.8418 86.5106 87.3768C86.5106 87.7953 86.6213 87.7372 86.2337 87.6238C88.9324 88.0801 91.9137 89.7106 96.0053 90.4227C96.6232 90.5302 97.2381 90.6348 97.8909 90.7365C98.1386 90.7772 98.6311 90.8266 98.8438 90.8877L99.587 91.2452C97.0457 91.0592 94.962 90.6261 92.3421 90.815C90.1039 90.9778 87.7696 91.2045 85.5489 91.3091L85.5343 91.5387C87.312 91.4021 90.6022 91.8061 92.5286 91.9253C94.9212 92.0735 97.8209 91.4486 99.7852 91.6782C99.3014 92.2827 97.0836 92.4251 96.3142 92.5676C94.3355 92.9367 87.5714 95.0787 86.5106 95.9186L86.4144 96.122C88.7925 95.5727 91.0773 95.0322 93.502 94.4916C95.4982 94.044 98.5058 92.4397 99.9484 92.2973C99.2985 92.9628 97.7597 93.4249 96.868 93.8522C95.5536 94.4799 94.793 94.82 93.7089 95.596L88.0056 99.7085C88.9411 99.5254 93.1348 97.1916 94.3413 96.5929C95.3592 96.0698 96.3252 95.4518 97.2264 94.7473C98.0191 94.1661 99.4238 93.0878 100.234 92.7448C99.8901 93.3261 100.182 92.9221 99.6773 93.3755C98.0337 94.8491 97.0545 95.192 94.895 97.5113L90.34 102.83L90.372 103.06L95.7343 98.3454C98.0657 96.0959 98.4154 95.3257 100.007 93.6952C100.412 93.2767 100.17 93.3261 100.691 93.1866C100.508 93.7679 99.2344 95.4245 98.838 95.9913C97.0341 98.5547 94.9853 102.897 93.8371 105.765L94.0411 105.794C94.624 104.719 95.2534 103.882 95.8917 102.871C99.01 97.9298 98.3105 99.2086 100.668 94.169C100.974 93.5179 100.77 93.6778 101.251 93.5354C100.575 95.6338 99.5374 97.5636 99.112 99.8829C98.7156 102.028 97.9142 105.277 97.8005 107.384L97.9521 107.463C98.5728 104.19 100.219 101.385 100.951 97.1654C101.065 96.5173 101.423 94.0411 101.659 93.6255C101.86 93.9161 101.274 99.2696 101.368 100.572C101.548 102.839 101.901 105.707 101.854 107.954H102.146C101.913 103.423 102.936 101.865 102.271 95.2443L102.233 93.9365C102.364 93.3552 102.096 93.9103 102.405 93.5615C103.096 95.253 103.279 98.5023 104.104 100.708L105.949 105.597C106.441 106.876 106.587 106.71 106.281 107.419C106.331 107.419 106.406 107.378 106.433 107.419L106.724 107.378C106.952 107.316 107.155 107.186 107.307 107.006C106.546 107.114 106.753 107.509 106.357 105.553L105.107 100.089C104.524 97.5055 103.003 94.4974 102.816 93.4046C103.198 93.6168 104.162 95.9186 104.387 96.433C106.06 100.287 109.254 103.597 110.07 105.521L110.28 105.428L107.077 99.0052C105.882 96.6248 103.801 94.355 103.265 93.0907C104.081 93.5267 106.217 96.6248 108.012 98.2466L113.468 102.897L113.608 102.879C112.984 101.824 112.15 101.191 111.352 100.197C110.95 99.6911 110.58 99.3772 110.137 98.8656C109.763 98.393 109.365 97.94 108.945 97.5084L106.322 95.038C105.856 94.6485 103.891 93.1081 103.719 92.6664C104.521 92.7681 107.263 95.1426 109.65 96.2819C110.795 96.8283 111.722 97.2497 112.856 97.7845C113.823 98.235 115.388 99.0487 116.353 99.2842L116.306 99.1534L110.478 95.439C108.405 94.2312 106.24 93.1885 104.002 92.3205C104.276 92.1084 103.574 91.8584 105.515 92.5617C106.06 92.7594 106.587 92.957 107.112 93.143C108.192 93.591 109.316 93.927 110.466 94.1457C113.013 94.5817 115.476 95.0176 117.944 95.4652C118.434 95.5669 118.125 95.5727 118.11 95.1368C116.944 95.1658 112.658 93.6051 111.282 93.1576C109.242 92.4949 105.655 92.2856 104.087 91.6143C104.897 91.373 109.239 92.1171 110.874 91.995C113.412 91.8061 115.887 91.5939 118.413 91.4951V91.3033C115.997 91.1057 113.523 90.9894 111.09 90.8208C109.81 90.7307 104.602 91.3469 104.095 90.9632C104.911 90.4023 108.423 90.2832 111.203 89.2194C113.319 88.4173 115.49 87.7052 117.58 86.7868L117.691 86.6008C115.245 87.1327 112.882 87.682 110.428 88.2545C107.974 88.8271 106.223 89.9053 103.95 90.4953L104.783 89.914C111.69 86.4962 108.572 88.2429 115.814 83.2294L115.633 83.1887C115.05 83.2265 110.233 85.787 109.338 86.2724C107.042 87.5192 105.034 89.356 103.623 90.0506C103.958 89.4083 105.774 88.1179 106.363 87.6645C107.305 86.9804 108.162 86.1862 108.916 85.2987C109.691 84.3106 110.446 83.5724 111.294 82.5842C111.737 82.0669 111.964 81.7908 112.477 81.2182C112.863 80.807 113.203 80.3548 113.491 79.8697C112.771 80.1022 108.659 84.0403 107.998 84.5605C106.147 86.0137 103.903 89.4316 103.195 89.5798C103.323 88.8561 105.961 85.787 106.858 83.7816C107.464 82.4243 109.679 78.2595 109.845 77.1638L109.504 77.5242C109.446 77.5969 109.327 77.7654 109.277 77.841L107.843 80.044C105.045 84.3222 105.585 83.6014 103.495 87.8912C102.784 89.3444 103.113 89.1148 102.597 89.2717C103.244 87.2634 104.346 85.1447 104.745 82.9533C105.153 80.6834 105.809 78.0125 106.048 75.7513L105.867 75.856C104.366 78.3148 102.341 88.8678 102.189 89.1468C101.994 88.7021 102.14 88.0336 102.189 87.4989C102.676 82.9039 102.528 80.2736 101.98 75.4927H101.781C101.443 77.1057 101.449 80.6253 101.321 82.4389C101.228 83.7409 101.904 88.6701 101.499 89.2427C100.995 88.2255 100.811 84.8686 99.7677 82.0901L97.4392 75.8821Z" fill="#030304"/>
<path fill-rule="evenodd" clip-rule="evenodd" d="M102.134 107.957L103.096 107.803C103.617 107.512 103.291 106.396 104.809 107.268C105.497 107.663 105.229 107.384 106.267 107.422C106.573 106.713 106.427 106.879 105.934 105.6L104.09 100.711C103.253 98.4966 103.081 95.256 102.391 93.5645C102.082 93.9132 102.35 93.3668 102.219 93.9394L102.256 95.2472C102.921 101.868 101.898 103.426 102.131 107.957" fill="white"/>
<path fill-rule="evenodd" clip-rule="evenodd" d="M86.4989 95.9185C87.5685 95.0785 94.3238 92.9366 96.3026 92.5675C97.072 92.425 99.2897 92.2768 99.7735 91.6781C97.8093 91.4485 94.9096 92.0734 92.5169 91.9251C90.5906 91.806 87.3004 91.402 85.5227 91.5386L85.4906 92.611L86.3357 93.1022C86.4552 94.163 86.2658 94.0352 85.782 94.6135C85.9744 95.5 85.7675 95.6802 86.5077 95.9156" fill="white"/>
<path fill-rule="evenodd" clip-rule="evenodd" d="M118.422 91.3179C118.346 90.9342 118.466 90.414 118.253 90.0362C118.005 89.6002 117.151 89.5944 117.626 88.5597C117.739 88.4426 117.827 88.3045 117.886 88.1533C117.944 88.0021 117.972 87.8408 117.968 87.6788C117.964 87.5167 117.928 87.357 117.862 87.2089C117.796 87.0608 117.701 86.9273 117.583 86.8159C115.493 87.7343 113.322 88.4464 111.206 89.2485C108.426 90.3065 104.914 90.4256 104.098 90.9924C104.611 91.376 109.819 90.7599 111.093 90.85C113.526 91.0185 116 91.1406 118.416 91.3324" fill="white"/>
<path fill-rule="evenodd" clip-rule="evenodd" d="M97.4391 75.8824L99.7706 82.1165C100.814 84.895 100.997 88.2519 101.502 89.2691C101.918 88.6878 101.231 83.7674 101.324 82.4653C101.452 80.6517 101.446 77.1321 101.784 75.5191C101.784 74.7257 101.411 75.0221 100.546 75.0715C100.187 75.5394 100.085 76.3038 99.2256 75.9434C98.8875 75.7981 98.4154 74.8535 97.4421 75.894" fill="white"/>
<path fill-rule="evenodd" clip-rule="evenodd" d="M113.608 102.888C115.088 101.822 114.016 102.048 114.482 100.578C116.006 100.287 115.566 100.889 116.335 99.2931C115.382 99.0577 113.817 98.2439 112.838 97.7934C111.69 97.2586 110.763 96.8372 109.633 96.2908C107.246 95.1515 104.503 92.777 103.702 92.6753C103.874 93.1171 105.838 94.6574 106.304 95.0469L108.927 97.5173C109.348 97.9489 109.746 98.4019 110.119 98.8746C110.562 99.3861 110.932 99.7 111.334 100.206C112.124 101.2 112.966 101.833 113.59 102.888" fill="white"/>
<path fill-rule="evenodd" clip-rule="evenodd" d="M90.3604 103.074C91.4328 104.455 91.2172 103.19 92.377 103.841C92.9599 104.591 92.4062 104.49 92.7384 105.004C92.8812 105.222 93.4816 105.524 93.8254 105.786C94.9737 102.917 97.0312 98.5751 98.8264 96.0117C99.2256 95.4449 100.496 93.7767 100.68 93.207C100.158 93.3465 100.388 93.2971 99.995 93.7156C98.4038 95.3461 98.0424 96.1163 95.7226 98.3658L90.3604 103.074Z" fill="white"/>
<path fill-rule="evenodd" clip-rule="evenodd" d="M113.485 79.8899C112.427 78.2246 112.168 79.4656 111.361 78.7651C110.553 78.0647 111.69 77.6404 109.839 77.1841C109.673 78.2769 107.458 82.4446 106.852 83.8019C105.955 85.8073 103.317 88.8764 103.189 89.6001C103.897 89.4518 106.141 86.0369 107.992 84.5808C108.653 84.0605 112.765 80.1224 113.485 79.8899Z" fill="white"/>
<path fill-rule="evenodd" clip-rule="evenodd" d="M87.6268 83.6016C88.3786 83.6219 93.0619 85.9674 94.1285 86.4614C96.6523 87.6385 99.2052 89.9026 100.173 90.1496L98.9459 88.9406C97.7947 88.0221 95.7401 86.3248 94.9329 85.3047C94.1956 84.3747 90.5323 80.608 90.3283 80.0732C88.7604 80.8434 89.8008 81.1748 89.454 81.9479C88.9469 83.1104 88.0435 81.3985 87.6151 83.6161" fill="white"/>
<path fill-rule="evenodd" clip-rule="evenodd" d="M97.9316 107.469C100.082 107.469 98.3863 106.835 100.205 107.001C101 107.98 100.079 107.73 101.843 107.96C101.889 105.713 101.537 102.845 101.356 100.578C101.254 99.2755 101.84 93.9307 101.647 93.6313C101.411 94.047 101.064 96.5232 100.939 97.1713C100.208 101.391 98.5611 104.196 97.9404 107.469" fill="white"/>
<path fill-rule="evenodd" clip-rule="evenodd" d="M110.262 105.434C111.471 105.373 111.235 104.272 111.454 103.69C112.468 103.432 113.202 104.048 113.468 102.917L108.012 98.2672C106.217 96.6455 104.081 93.5473 103.265 93.1113C103.801 94.3669 105.888 96.6455 107.077 99.0258L110.262 105.434Z" fill="white"/>
<path fill-rule="evenodd" clip-rule="evenodd" d="M90.3399 79.9916C90.9403 80.2357 94.6822 83.6333 95.7459 84.4849C97.7626 86.0979 99.7356 89.324 100.569 89.7163C100.33 89.0362 99.1382 87.4726 98.6777 86.8303C96.3055 83.5141 94.9445 79.6952 93.6972 77.7973C93.5107 77.5067 93.5427 77.5532 93.4291 77.4863C91.9719 78.0676 93.0415 77.9426 92.5548 78.8465C92.1847 79.5411 91.7271 79.0848 90.8995 79.1778C90.4857 79.7591 90.643 79.297 90.3341 79.9887" fill="white"/>
<path fill-rule="evenodd" clip-rule="evenodd" d="M116.298 99.1621C117.39 98.2902 116.4 98.171 116.589 96.9794C117.755 95.9738 117.192 97.27 117.929 95.4797C115.461 95.0437 112.999 94.6078 110.451 94.1602C109.302 93.9415 108.178 93.6055 107.097 93.1575C106.573 92.9628 106.045 92.7652 105.5 92.5762C103.559 91.8729 104.261 92.1228 103.988 92.335C106.22 93.2046 108.38 94.2483 110.449 95.4565L116.298 99.1621Z" fill="white"/>
<path fill-rule="evenodd" clip-rule="evenodd" d="M86.4989 87.3797C87.822 87.8447 91.7446 88.3388 93.4174 88.6294C95.233 88.9433 98.1939 90.0826 99.7822 90.7395C99.6482 90.2977 100.149 90.6029 98.3921 89.8501C97.7626 89.5827 97.3692 89.3938 96.7543 89.1206C92.8171 87.3768 89.6813 84.6826 87.4723 83.645C86.6242 84.886 87.2625 84.3367 87.3936 85.2116C87.5335 86.1794 86.9536 85.9556 86.3212 86.252L86.0297 87.1646L86.4989 87.3797Z" fill="white"/>
<path fill-rule="evenodd" clip-rule="evenodd" d="M94.0294 105.801C95.3496 106.719 94.9037 105.184 96.0345 105.984C96.6465 106.411 96.1102 106.46 96.6173 106.919C96.8097 107.1 97.445 107.21 97.783 107.39C97.8967 105.283 98.6981 102.034 99.0945 99.889C99.52 97.5639 100.552 95.6399 101.234 93.5415C100.761 93.6839 100.965 93.5241 100.651 94.1751C98.2931 99.2147 98.9925 97.933 95.8742 102.877C95.236 103.888 94.6123 104.725 94.0236 105.801" fill="white"/>
<path fill-rule="evenodd" clip-rule="evenodd" d="M86.4028 96.1222C85.9161 97.7556 87.3091 96.5872 87.551 97.7556C87.688 98.4269 86.6272 99.1332 87.994 99.7144L93.6972 95.6019C94.7813 94.8201 95.542 94.4801 96.8563 93.8581C97.7481 93.4309 99.2868 92.9688 99.9367 92.3032C98.4796 92.4456 95.4866 94.047 93.4903 94.4975C91.0744 95.0381 88.7808 95.5787 86.4028 96.128" fill="white"/>
<path fill-rule="evenodd" clip-rule="evenodd" d="M101.98 75.5189C102.527 80.2999 102.676 82.9301 102.189 87.5251C102.134 88.0599 101.988 88.7283 102.189 89.173C102.341 88.8824 104.366 78.341 105.867 75.8822C105.547 75.3358 105.972 75.641 105.395 75.4027C104.652 75.0946 104.521 76.1699 103.647 75.8444C103.212 75.4957 103.3 75.2893 102.947 75.1091C102.029 74.6325 102.09 75.1934 101.988 75.5189" fill="white"/>
<path fill-rule="evenodd" clip-rule="evenodd" d="M109.839 77.1844C108.674 75.9725 108.889 77.1467 107.919 76.8938C106.948 76.6409 107.756 75.3767 106.042 75.7807C105.803 78.0302 105.147 80.7215 104.739 82.9826C104.346 85.174 103.239 87.2928 102.592 89.3011C103.107 89.1441 102.778 89.3853 103.489 87.9205C105.579 83.6249 105.04 84.3457 107.837 80.0734L109.271 77.8703C109.321 77.7948 109.44 77.6262 109.498 77.5535L109.839 77.1844Z" fill="white"/>
<path fill-rule="evenodd" clip-rule="evenodd" d="M118.11 95.1514C117.889 93.3873 117.527 93.925 117.542 93.3437C117.586 92.28 118.154 93.3437 118.416 91.5098C115.889 91.6086 113.415 91.8207 110.877 92.0097C109.242 92.1317 104.9 91.3877 104.09 91.6289C105.657 92.2887 109.236 92.5008 111.285 93.1722C112.66 93.6198 116.942 95.1805 118.113 95.1514" fill="white"/>
<path fill-rule="evenodd" clip-rule="evenodd" d="M117.685 86.6215C117.046 85.116 116.656 85.7496 116.367 85.1247C116.146 84.6423 116.703 84.0087 116.385 83.5582C115.913 82.8868 116.461 83.2879 115.802 83.2472C108.569 88.252 111.678 86.5052 104.771 89.9318L103.938 90.5131C106.211 89.9318 107.968 88.842 110.416 88.2723C112.864 87.7027 115.234 87.1504 117.679 86.6186" fill="white"/>
<path fill-rule="evenodd" clip-rule="evenodd" d="M85.5372 91.3093C87.7579 91.2047 90.0922 90.978 92.3304 90.8152C94.9532 90.6263 97.034 91.0593 99.5753 91.2454L98.8322 90.8879C98.6194 90.8268 98.1269 90.7774 97.8792 90.7367C97.2264 90.635 96.6115 90.5304 95.9936 90.4229C91.9136 89.7108 88.9207 88.0803 86.222 87.624C85.782 87.7519 86.0006 87.5281 85.849 87.967C85.4935 89.0133 86.4668 87.8478 86.3503 89.8038C85.9073 90.1497 85.9714 89.9607 85.5051 90.2514L85.5372 91.3093Z" fill="white"/>
<path fill-rule="evenodd" clip-rule="evenodd" d="M107.289 107.015C108.035 106.504 107.383 106.483 108.097 105.795C109.149 105.591 108.776 105.923 109.364 105.969C109.621 105.986 110.355 105.748 110.052 105.527C109.236 103.603 106.042 100.296 104.369 96.4391C104.145 95.9247 103.18 93.6228 102.799 93.4106C102.985 94.5005 104.5 97.5086 105.089 100.095L106.339 105.559C106.736 107.521 106.529 107.126 107.289 107.012" fill="white"/>
<path fill-rule="evenodd" clip-rule="evenodd" d="M87.9939 99.7146C87.7025 100.712 88.6467 100.441 89.4802 100.732C89.8066 101.758 89.2354 101.865 89.6434 102.377C90.0514 102.888 89.8853 102.621 90.3283 102.836L94.8833 97.5174C97.037 95.1923 98.022 94.8552 99.6657 93.3817C100.17 92.9283 99.8784 93.3352 100.222 92.751C99.4121 93.0939 98.0074 94.178 97.2147 94.7535C96.3135 95.458 95.3475 96.0759 94.3296 96.599C93.1231 97.1977 88.9294 99.5315 87.9939 99.7146Z" fill="white"/>
<path fill-rule="evenodd" clip-rule="evenodd" d="M93.7176 77.2306C94.1839 78.3205 97.9871 83.2207 98.6457 84.4965C98.9692 85.1272 99.1586 85.6591 99.4355 86.2578C99.928 87.3157 100.441 88.4986 100.983 89.4054C101.024 88.6992 99.1732 84.482 98.8439 83.0317C98.2931 80.6195 97.7801 78.2159 97.2002 75.9286L96.8942 75.853C95.5128 76.0797 96.8796 77.4544 95.1719 77.0824C94.3588 76.9051 94.8163 76.4372 93.7147 77.219" fill="white"/>
<path fill-rule="evenodd" clip-rule="evenodd" d="M115.627 83.2063C115.951 82.7762 115.744 83.1075 115.857 82.5582C114.292 81.3491 115.54 82.3373 114.193 81.7706C113.864 80.4075 114.695 80.6749 113.485 79.8901C113.198 80.3753 112.857 80.8275 112.471 81.2387C111.958 81.82 111.731 82.0873 111.288 82.6047C110.44 83.5928 109.685 84.3311 108.91 85.3192C108.157 86.2067 107.299 87.0009 106.357 87.685C105.774 88.1384 103.953 89.4288 103.617 90.0711C105.028 89.3736 107.036 87.5368 109.332 86.2929C110.227 85.8075 115.033 83.247 115.627 83.2092" fill="white"/>
<g clip-path="url(#clip1_19_108)">
<path fill-rule="evenodd" clip-rule="evenodd" d="M140.169 184.104C143.22 183.673 154.794 176.995 157.79 175.027C164.406 170.688 167.203 168.209 172.65 163.236C176.802 159.434 181.374 154.171 185.029 148.966C188.8 143.66 192.081 138.028 194.834 132.138C200.743 119.579 204.205 104.295 203.988 88.0802C203.821 75.8734 201.52 65.5181 197.607 54.5436C196.945 52.6836 194.371 46.3564 193.527 45.3624C192.224 45.2578 192.309 45.7984 191.852 46.7982L164.93 104.091C162.523 109.195 163.351 108.009 164.93 113.682C168.247 125.769 168.004 138.545 164.228 150.499C160.453 162.452 153.303 173.08 143.628 181.124C143.018 181.627 142.538 181.996 141.903 182.505C140.942 183.255 140.415 183.377 140.184 184.092" fill="#348E2C"/>
<path fill-rule="evenodd" clip-rule="evenodd" d="M62.4036 183.726C61.6304 182.889 59.9143 181.776 58.9947 180.985C57.8584 180.009 56.7954 179.038 55.7147 178.059C49.5881 172.51 43.7779 163.887 40.4334 155.77C34.9189 142.4 33.973 127.901 38.0261 113.096C39.9444 106.097 40.6355 109.05 38.2399 103.923C36.8547 100.956 35.5896 98.2818 34.219 95.3725C31.4925 89.5918 28.8246 84.0232 26.1742 78.2628C24.6162 74.8827 10.6528 44.8396 10.0524 44.2583C8.0815 46.1765 3.54807 59.8073 2.55528 63.3415C-5.60665 92.4226 0.648787 124.872 17.5906 148.414C25.3132 159.147 33.809 167.488 44.8848 174.795C45.8835 175.454 61.1209 184.627 62.4036 183.714" fill="#348E2C"/>
<path fill-rule="evenodd" clip-rule="evenodd" d="M39.3821 129.167C39.3821 137.852 40.5242 144.815 43.5114 152.349C48.1971 164.172 55.4248 173.106 65.6953 180.54C68.2059 182.301 70.8495 183.867 73.6024 185.225C75.0433 185.961 81.4715 188.867 82.681 188.713L85.4632 173.373C65.8534 166.349 52.7364 146.379 55.3311 124.79C55.8875 120.14 57.6007 116.653 58.9654 112.584C60.295 108.646 61.812 104.737 63.1445 100.903C65.0979 95.2618 79.8052 54.7587 79.7056 53.8926C79.6294 53.2532 59.9231 12.3316 56.6782 5.42318C55.8641 3.67936 54.7278 1.64491 54.0982 -0.0117188C52.1536 0.22079 48.979 3.62705 47.9804 5.1122C46.2911 7.72208 45.3926 10.7584 45.3915 13.8604C45.412 17.5514 46.5805 19.7661 47.8779 22.5213C51.3629 29.9238 55.1436 38.114 58.7634 45.3566C60.0314 47.8939 61.1677 50.3236 62.3538 52.8928C63.4403 55.247 63.4813 54.471 62.5969 57.0867C58.5437 69.0871 53.7116 82.1715 49.3421 94.2881L40.5242 119.059C39.7042 121.434 39.3821 126.459 39.3821 129.17" fill="#F49530"/>
<path fill-rule="evenodd" clip-rule="evenodd" d="M117.628 173.362C117.56 175.48 119.807 185.135 120.202 188.69C122.876 188.483 130.159 184.743 132.528 183.426C152.038 172.51 165.056 149.576 163.302 126.421C162.742 119.039 162.423 118.425 160.192 112.029L140.585 56.9065C139.999 55.1627 139.651 55.3487 140.503 53.6659C141.496 51.707 142.441 49.6784 143.402 47.6265C147.145 39.6252 150.952 31.6763 154.75 23.7943C156.853 19.4347 158.929 15.5402 157.26 9.64901C156.674 7.54742 155.65 5.59107 154.255 3.90604C153.35 2.84521 150.82 0.39515 149.119 0.0463867C148.401 1.85124 147.402 3.67934 146.606 5.3505C145.727 7.18732 144.966 8.83814 144.084 10.6662C142.351 14.2818 140.678 17.7665 138.956 21.4053L126.173 48.1758C125.412 49.7191 124.182 51.9976 123.64 53.4886C123.256 54.5407 124.882 58.1388 125.312 59.342L139.876 100.168C142.201 106.634 146.641 117.862 147.402 124.291C149.485 141.929 141.724 158.388 128.001 167.828C123.315 171.06 118.085 173.039 117.628 173.35" fill="#F49530"/>
<path fill-rule="evenodd" clip-rule="evenodd" d="M81.7321 214.678L89.812 215.478L91.6043 201.736L94.5329 202.097L92.7963 215.489C93.7363 215.78 98.8643 215.85 100.006 215.73V201.957H102.721L102.753 215.725L109.984 215.495C110.306 214.402 108.622 204.23 108.406 202.059L111.334 201.736L113.068 214.815C113.191 215.21 113.138 215.065 113.252 215.257C114.397 215.187 119.988 214.806 120.717 214.556C121.127 214.414 121.01 214.574 121.08 214.117L107.811 139.081C107.176 135.538 107.747 135.448 109.275 133.068L117.314 120.844C117.918 119.533 117.021 118.35 115.654 118.603C114.611 118.792 99.7809 125.683 99.0195 126.345C97.4146 127.749 97.3063 129.935 96.864 132.382L84.2712 200.8C83.7382 203.634 81.9635 212.516 81.7321 214.678Z" fill="#1A1A18"/>
<path fill-rule="evenodd" clip-rule="evenodd" d="M82.4321 214.243L89.3552 214.873L91.1123 201.176L95.0747 201.6C95.1479 203.187 94.5036 206.617 94.2693 208.384C94.0995 209.659 93.3644 214.196 93.5167 215.103L99.4412 215.222V201.423H103.248L103.289 215.182L109.401 214.984L107.764 201.638L111.806 201.097L113.563 214.676L120.38 214.06C120.521 212.397 118.576 203.167 118.166 200.844L108.868 148.239C108.376 145.406 106.338 137.306 107.404 135.033C108.06 133.629 115.018 123.495 116.559 121.021C117.194 120.001 117.042 118.696 115.387 119.277L101.942 125.413C97.3678 127.447 98.1028 128.761 96.8143 135.791C95.2123 144.531 93.5724 153.198 92.0056 161.928L84.7691 201.123C84.3708 203.332 83.9783 205.434 83.5801 207.593C83.255 209.337 82.4555 212.624 82.4321 214.243Z" fill="white"/>
<path fill-rule="evenodd" clip-rule="evenodd" d="M14.498 40.9682C14.5683 44.2117 15.769 46.9233 16.9755 49.3734L24.0832 64.5097C27.6765 71.9674 31.1615 79.8873 34.7578 87.1793C36.0025 89.7079 37.0655 92.2684 38.3102 94.7359L41.9416 102.228C42.4102 101.458 45.0342 93.7216 45.5848 92.2015C49.799 80.5761 50.1006 82.3635 44.9083 71.6419C43.444 68.6106 41.8391 65.2479 40.4861 62.205C37.6981 55.9069 34.5206 49.8122 31.6858 43.4822C30.324 40.4421 28.8158 37.2451 27.2929 34.1818C26.5637 32.7403 23.4594 25.4743 22.698 24.8931C21.96 25.1285 21.629 25.8202 21.1985 26.3869C17.614 31.104 14.4833 34.0801 14.498 40.9682Z" fill="#1A1A18"/>
<path fill-rule="evenodd" clip-rule="evenodd" d="M161.316 102.359C162.35 100.543 164.652 95.2939 165.785 92.9426C167.355 89.6817 168.763 86.5079 170.321 83.247C173.393 76.8065 176.269 70.2904 179.347 64.0156C181.005 60.6355 187.483 47.3563 188.183 44.5923C190.092 37.0649 186.499 32.2752 182.299 26.9914C181.755 26.3055 181.236 25.3842 180.489 25.0674C179.669 25.5615 172.114 42.3922 171.487 43.6681C168.418 49.943 165.721 56.2672 162.684 62.3996L156.074 76.3909C155.318 77.9429 154.425 79.6431 154.408 81.7008C154.387 84.1014 158.241 93.9075 159.453 97.2934C159.957 98.7059 160.625 101.072 161.307 102.359" fill="#1A1A18"/>
<path fill-rule="evenodd" clip-rule="evenodd" d="M99.8922 73.8275C90.4534 74.772 82.7835 82.5466 83.665 93.0502C83.8756 95.367 84.5451 97.6198 85.6351 99.6793C86.725 101.739 88.214 103.564 90.0166 105.051C91.8192 106.539 93.9 107.658 96.1394 108.345C98.3789 109.032 100.733 109.273 103.067 109.056C112.274 108.224 120.173 100.089 119.174 89.7921C118.295 80.6778 110.163 72.7986 99.8893 73.8275" fill="#312482"/>
<path fill-rule="evenodd" clip-rule="evenodd" d="M41.8596 100.903C42.5039 99.5082 43.0867 97.5697 43.6168 96.0904C45.0049 92.1348 48.692 83.4913 48.1473 80.4599C47.8779 78.9544 46.8821 77.1234 46.2437 75.8098C45.5174 74.3014 44.7794 72.7755 44.0795 71.2351C39.9414 62.0656 35.4256 53.0762 31.1938 43.8136C29.8056 40.7648 28.3706 37.6696 26.9474 34.7516L23.2164 26.8172C23.1285 26.637 23.0172 26.3812 22.9235 26.2185L22.5311 25.6982C22.0057 26.2691 21.5166 26.8719 21.0668 27.5031C17.0107 32.7345 13.4232 37.4341 15.7075 44.8425C16.3752 47.0164 36.0816 88.839 37.4785 91.6349C38.6499 93.9862 40.8376 99.1566 41.8919 100.918" fill="white"/>
<path fill-rule="evenodd" clip-rule="evenodd" d="M161.48 100.854C162.341 98.5781 163.805 95.7996 164.88 93.4862L171.774 78.8817C172.884 76.4258 173.997 73.9787 175.195 71.5373C177.581 66.675 179.822 61.8214 182.085 56.9212C184.171 52.4105 188.092 45.5341 188.092 41.1484C188.092 37.3265 187.24 34.6963 185.319 31.9904L180.926 26.1777C180.533 25.7999 180.952 26.0789 180.431 25.8086C180.1 26.9392 178.967 29.2032 178.381 30.3396C176.179 34.734 174.257 39.39 171.967 43.9792C167.645 52.6401 163.448 62.4782 159.149 71.2699C158.42 72.758 157.714 74.2402 157.049 75.7341C154.121 82.2996 154.203 81.0934 157.793 90.9693C158.379 92.6143 158.994 94.3203 159.568 95.9333L160.847 99.5692C160.912 99.7973 160.992 100.021 161.088 100.238L161.219 100.496C161.29 100.631 161.378 100.755 161.483 100.865" fill="white"/>
<path fill-rule="evenodd" clip-rule="evenodd" d="M64.0202 237.49L68.0586 237.612V233.192L64.0231 233.212L64.0202 237.49ZM76.5398 230.251L35.2469 230.28C35.367 231.053 36.5384 232.314 37.0187 233.16L38.9223 233.233C38.8989 234.578 39.1624 237.075 38.4215 237.883C37.6279 238.755 35.1386 238.633 34.2571 237.903C37.0568 235.808 35.2645 232.861 33.7944 231.625C31.4369 229.646 29.5889 229.98 26.3089 230.753L28.5142 233.724C29.5655 233.459 31.677 232.364 32.7225 233.215C33.8734 234.154 32.3857 235.194 31.6712 235.54C30.7516 235.988 29.1789 236.255 28.4497 236.633C29.0013 237.593 29.6468 238.496 30.3767 239.33L33.0124 238.676C33.3053 239.6 33.809 240.577 33.112 241.533C32.6024 242.231 31.4515 242.405 30.3826 242.077C28.5229 241.495 27.7234 239.842 26.6487 238.339L25.4187 238.996L25.3074 239.077L24.9882 239.368C25.9927 241.731 28.2359 244.454 30.8453 245.088C34.7374 246.032 37.1944 243.271 35.7682 239.813C36.9572 240.414 37.2677 240.841 39.0424 240.809L38.8227 245.82C39.3915 246.119 39.942 246.451 40.4715 246.814C41.1129 247.262 41.2739 247.706 42.296 247.735V233.189H46.191V245.776C47.3624 246.538 48.774 247.727 49.6292 247.753V233.189H60.8016V236.662C51.0231 233.125 50.7742 242.545 56.0369 247.346C56.7232 247.116 57.3791 246.805 57.9902 246.419C56.1364 244.015 52.9267 238.952 59.4984 238.862C59.6156 240.19 60.2189 240.897 60.8954 241.638C61.9438 242.8 61.7739 243.059 63.9997 243.05V240.548L68.1699 240.449L67.9532 245.733C68.413 246.192 69.0309 246.462 69.5903 246.826C70.4308 247.375 70.2492 247.698 71.4236 247.738V233.195H75.8164V245.907C77.9104 246.991 78.1446 247.782 79.2604 247.703V233.195H89.2469V236.831C87.9436 236.831 82.6517 236.54 81.9577 237.101C80.4289 238.301 82.7425 241.751 83.3458 242.417L85.1351 242.292C85.0502 241.309 84.977 240.719 85.2025 239.784L89.3816 239.688L89.2498 245.858C89.8062 246.209 90.3568 246.486 90.8546 246.831C91.6044 247.357 91.5985 247.703 92.685 247.744V233.186C94.7145 233.204 93.7012 233.009 94.6442 234.023C95.1596 233.648 95.5462 233.198 96.1759 233.166L96.949 233.352L97.195 237.778C95.4701 238.79 95.3705 239.388 97.318 241.684C98.3869 242.943 98.1966 243.004 100.381 243.015V240.472H104.446L104.238 245.91C106.666 246.974 106.625 247.878 107.811 247.654V233.195H113.452C113.425 234.555 113.595 236.897 113.238 237.961C111.527 237.961 111.238 237.65 110.174 239.24C111.103 241.109 112.107 242.184 113.267 243.684C113.853 244.434 114.406 245.05 114.986 245.8C115.553 246.586 116.185 247.323 116.878 248.003C117.695 247.712 118 247.349 118.758 247.105C118.336 246.061 114.737 243.326 114.512 241.69C117.695 239.298 116.878 238.784 116.878 233.198H120.392C120.316 232.122 120.626 233.183 119.514 231.683C119.164 231.244 118.853 230.777 118.582 230.286C115.381 230.312 110.763 230.55 107.714 230.286C106.572 230.19 105.506 228.484 105.559 227.19C105.629 225.537 107.843 225.356 107.952 227.699L109.416 227.379C109.829 221.325 102.217 222.2 103.266 227.071C103.532 228.318 104.47 229.466 105.064 230.268H100.378C100.472 231.14 101.705 232.23 102.206 233.174H104.411V237.58H100.408C100.37 234.604 100.61 233.448 98.8262 231.829C96.8817 230.065 96.6239 230.117 93.4435 230.262C89.0331 230.46 83.2081 230.413 78.7743 230.245C77.7054 226.734 80.1214 225.772 83.5449 226.077C87.0885 226.397 88.2834 227.757 90.3011 228.931C90.7351 228.603 91.0752 228.168 91.2881 227.67C90.3861 227.179 89.4519 225.993 87.0797 224.763C83.7382 223.02 78.0509 222.27 76.0331 225.008C74.3873 227.245 75.6378 228.603 76.5398 230.251Z" fill="#030304"/>
<path fill-rule="evenodd" clip-rule="evenodd" d="M51.3043 76.0655C52.4318 73.6213 56.0398 62.6963 57.4016 59.0342C58.9742 54.8229 57.8907 53.3349 56.3649 49.9344C51.8022 39.7621 46.3111 28.5872 41.5024 18.3103C40.3544 15.8515 39.0072 12.5964 37.7772 10.4282C36.4506 10.4282 32.2686 14.7878 31.3754 16.116C27.0089 22.6349 28.7016 28.5581 31.7619 34.6964L47.3214 67.8289C47.9335 69.1804 50.6512 75.3244 51.3043 76.0772" fill="#1A1A18"/>
<path fill-rule="evenodd" clip-rule="evenodd" d="M151.892 76.1031C152.539 75.4724 158.689 61.8474 159.685 59.7868C163.606 51.6693 167.372 43.0984 171.288 35.1117C172.661 32.31 174.111 29.5896 174.369 25.9654C174.817 19.6266 171.847 15.302 167.495 11.855C166.869 11.358 166.465 10.7593 165.653 10.521C164.971 10.9424 162.35 17.0458 161.773 18.2083C156.824 28.2556 151.936 39.5352 146.975 49.7249C145.385 52.9888 144.295 54.7588 145.777 58.8625C147.192 62.7803 150.911 72.7724 151.892 76.1031Z" fill="#1A1A18"/>
<path fill-rule="evenodd" clip-rule="evenodd" d="M51.1081 74.6531C51.6235 73.9556 53.8814 67.236 54.1304 66.5153C55.1173 63.6583 56.1071 61.0455 57.1029 58.1973C58.3182 54.7096 56.81 52.0241 55.4716 49.3648C54.227 46.9089 53.0878 44.206 51.8666 41.6571L37.4668 11.2072L37.376 11.1025C35.5164 12.1779 32.6903 15.1046 31.5189 16.9763C29.8175 19.777 29.0748 23.0487 29.4015 26.3028C29.8525 30.6101 34.2776 38.5531 36.2075 42.8342C39.7891 50.7628 43.7339 58.6972 47.4034 66.6373C48.5954 69.2153 50.1416 72.1013 51.1081 74.6531Z" fill="white"/>
<path fill-rule="evenodd" clip-rule="evenodd" d="M152.1 74.615C156.616 64.5125 162.241 53.1079 167.036 42.8833C168.298 40.1833 169.443 37.6054 170.761 34.9431C173.689 29.0374 175.628 23.5008 171.625 17.0487C170.011 14.4475 168.069 13.0582 165.855 11.1865C165.521 11.4772 150.22 43.8599 147.812 49.2599C146.538 52.1256 144.863 54.2937 146.09 58.0197C146.735 59.9698 151.655 74.0425 152.114 74.6121" fill="white"/>
<path fill-rule="evenodd" clip-rule="evenodd" d="M123.499 230.777L125.415 234.047C126.293 233.439 126.528 233.044 127.31 233.175C128.042 233.303 127.485 233.175 127.766 233.352L128.004 237.776C126.279 238.787 126.179 239.386 128.127 241.682C129.196 242.94 129.005 243.001 131.19 243.013V240.47H135.255L135.047 245.908C137.475 246.971 137.434 247.875 138.62 247.651V233.195H142.556V245.742C143.056 246.227 143.604 246.425 144.187 246.855C144.77 247.285 145.033 247.782 145.991 247.698V233.192H151.587C151.561 234.552 151.731 236.895 151.374 237.959C149.663 237.959 149.373 237.648 148.31 239.237C149.242 241.106 150.243 242.182 151.406 243.681C151.992 244.431 152.542 245.047 153.125 245.797C153.689 246.584 154.321 247.321 155.014 248C155.831 247.71 156.135 247.346 156.894 247.102C156.472 246.059 152.873 243.324 152.648 241.688C155.831 239.296 155.014 238.781 155.014 233.195H165.823V235.927C161.975 235.898 158.326 235.709 157.805 239.415C157.412 242.208 159.659 245.887 161.246 247.367L163.237 246.495C162.42 245.265 160.777 243.644 160.818 241.388C160.865 238.799 163.474 238.857 165.797 238.897L165.732 245.873C166.286 246.163 166.711 246.437 167.314 246.835C167.982 247.276 168.163 247.707 169.194 247.759V233.247L172.82 233.204C172.723 232.187 171.918 231.951 170.963 230.315L131.181 230.28C131.275 231.152 132.508 232.245 133.009 233.186H135.214V237.592H131.196C131.152 234.314 131.342 233.233 129.316 231.591C127.441 230.071 126.188 229.475 123.499 230.771" fill="#030304"/>
<path fill-rule="evenodd" clip-rule="evenodd" d="M96.9168 75.8821L96.3691 75.8647L96.6766 75.9403C97.2623 78.2276 97.7748 80.6311 98.3283 83.0434C98.6593 84.4966 100.519 88.7108 100.478 89.4171C99.9332 88.5103 99.4178 87.3274 98.9228 86.2695C98.63 85.6708 98.4543 85.1389 98.1292 84.5082C97.4673 83.2207 93.6456 78.3206 93.177 77.2423C93.1581 77.2739 93.1443 77.3082 93.136 77.344L92.8871 77.501C93.0013 77.5678 92.9691 77.5271 93.1565 77.8119C94.4099 79.7098 95.7776 83.5288 98.1614 86.8449C98.6241 87.4872 99.8219 89.0509 100.062 89.7309C99.2245 89.3357 97.2418 86.1096 95.2153 84.4995C94.1463 83.6479 90.3861 80.2504 89.7828 80.0063V80.0673C89.9878 80.6166 93.669 84.3832 94.4099 85.2987C95.2211 86.3131 97.2858 88.0162 98.4426 88.9346L99.6755 90.1437C98.7032 89.8966 96.1378 87.6326 93.6016 86.4555C92.5298 85.9614 87.8236 83.616 87.068 83.5956L86.9128 83.6421C89.1326 84.6797 92.2838 87.3797 96.2403 89.1177C96.8582 89.3909 97.2536 89.5798 97.8861 89.8472C99.6433 90.5999 99.1483 90.2948 99.2831 90.7365C97.687 90.0913 94.7116 88.9404 92.8871 88.6265C91.2031 88.3359 87.2642 87.8418 85.9346 87.3768C85.9346 87.7953 86.0459 87.7372 85.6564 87.6238C88.3683 88.0801 91.3642 89.7106 95.4759 90.4227C96.0968 90.5302 96.7147 90.6348 97.3707 90.7365C97.6196 90.7772 98.1146 90.8266 98.3283 90.8877L99.0751 91.2452C96.5214 91.0592 94.4275 90.6261 91.7947 90.815C89.5456 90.9778 87.1998 91.2045 84.9682 91.3091L84.9536 91.5387C86.74 91.4021 90.0463 91.8061 91.9821 91.9253C94.3865 92.0735 97.3004 91.4486 99.2743 91.6782C98.7881 92.2827 96.5595 92.4251 95.7863 92.5676C93.7978 92.9367 87.0006 95.0787 85.9346 95.9186L85.838 96.122C88.2277 95.5727 90.5237 95.0322 92.9603 94.4916C94.9663 94.044 97.9886 92.4397 99.4383 92.2973C98.7852 92.9628 97.2389 93.4249 96.3428 93.8522C95.022 94.4799 94.2576 94.82 93.1682 95.596L87.437 99.7085C88.3771 99.5254 92.5913 97.1916 93.8037 96.5929C94.8266 96.0698 95.7973 95.4518 96.703 94.7473C97.4996 94.1661 98.9111 93.0878 99.7253 92.7448C99.3797 93.3261 99.6726 92.9221 99.1659 93.3755C97.5142 94.8491 96.5302 95.192 94.3601 97.5113L89.7828 102.83L89.815 103.06L95.2036 98.3454C97.5464 96.0959 97.8978 95.3257 99.4968 93.6952C99.9039 93.2767 99.6608 93.3261 100.185 93.1866C100.001 93.7679 98.7208 95.4245 98.3225 95.9913C96.5097 98.5547 94.4509 102.897 93.2971 105.765L93.5021 105.794C94.0878 104.719 94.7203 103.882 95.3617 102.871C98.4953 97.9298 97.7924 99.2086 100.162 94.169C100.469 93.5179 100.264 93.6778 100.747 93.5354C100.068 95.6338 99.0253 97.5636 98.5978 99.8829C98.1995 102.028 97.3941 105.277 97.2799 107.384L97.4322 107.463C98.056 104.19 99.7106 101.385 100.446 97.1654C100.56 96.5173 100.92 94.0411 101.157 93.6255C101.359 93.9161 100.771 99.2696 100.864 100.572C101.046 102.839 101.4 105.707 101.354 107.954H101.646C101.412 103.423 102.44 101.865 101.772 95.2443L101.734 93.9365C101.866 93.3552 101.597 93.9103 101.907 93.5615C102.601 95.253 102.786 98.5023 103.614 100.708L105.468 105.597C105.963 106.876 106.11 106.71 105.802 107.419C105.852 107.419 105.928 107.378 105.954 107.419L106.247 107.378C106.476 107.316 106.68 107.186 106.833 107.006C106.069 107.114 106.276 107.509 105.878 105.553L104.622 100.089C104.036 97.5055 102.507 94.4974 102.32 93.4046C102.704 93.6168 103.673 95.9186 103.898 96.433C105.579 100.287 108.789 103.597 109.609 105.521L109.82 105.428L106.602 99.0052C105.401 96.6248 103.31 94.355 102.771 93.0907C103.591 93.5267 105.738 96.6248 107.542 98.2466L113.024 102.897L113.164 102.879C112.538 101.824 111.7 101.191 110.898 100.197C110.494 99.6911 110.122 99.3772 109.677 98.8656C109.301 98.393 108.901 97.94 108.479 97.5084L105.843 95.038C105.374 94.6485 103.401 93.1081 103.228 92.6664C104.033 92.7681 106.789 95.1426 109.187 96.2819C110.338 96.8283 111.27 97.2497 112.409 97.7845C113.381 98.235 114.954 99.0487 115.923 99.2842L115.876 99.1534L110.019 95.439C107.936 94.2312 105.76 93.1885 103.512 92.3205C103.787 92.1084 103.081 91.8584 105.032 92.5617C105.579 92.7594 106.11 92.957 106.637 93.143C107.723 93.591 108.852 93.927 110.007 94.1457C112.567 94.5817 115.042 95.0176 117.522 95.4652C118.014 95.5669 117.704 95.5727 117.689 95.1368C116.518 95.1658 112.21 93.6051 110.827 93.1576C108.777 92.4949 105.172 92.2856 103.597 91.6143C104.411 91.373 108.775 92.1171 110.417 91.995C112.968 91.8061 115.455 91.5939 117.994 91.4951V91.3033C115.566 91.1057 113.08 90.9894 110.634 90.8208C109.349 90.7307 104.115 91.3469 103.606 90.9632C104.426 90.4023 107.955 90.2832 110.748 89.2194C112.875 88.4173 115.056 87.7052 117.156 86.7868L117.267 86.6008C114.81 87.1327 112.435 87.682 109.969 88.2545C107.504 88.8271 105.743 89.9053 103.459 90.4953L104.297 89.914C111.237 86.4962 108.104 88.2429 115.381 83.2294L115.2 83.1887C114.614 83.2265 109.773 85.787 108.874 86.2724C106.566 87.5192 104.549 89.356 103.131 90.0506C103.468 89.4083 105.292 88.1179 105.884 87.6645C106.831 86.9804 107.693 86.1862 108.449 85.2987C109.228 84.3106 109.987 83.5724 110.839 82.5842C111.284 82.0669 111.513 81.7908 112.028 81.2182C112.417 80.807 112.758 80.3548 113.047 79.8697C112.324 80.1022 108.192 84.0403 107.527 84.5605C105.667 86.0137 103.412 89.4316 102.701 89.5798C102.83 88.8561 105.48 85.787 106.382 83.7816C106.991 82.4243 109.217 78.2595 109.384 77.1638L109.041 77.5242C108.982 77.5969 108.862 77.7654 108.813 77.841L107.372 80.044C104.56 84.3222 105.102 83.6014 103.002 87.8912C102.288 89.3444 102.619 89.1148 102.1 89.2717C102.75 87.2634 103.857 85.1447 104.259 82.9533C104.669 80.6834 105.328 78.0125 105.568 75.7513L105.386 75.856C103.878 78.3148 101.843 88.8678 101.69 89.1468C101.494 88.7021 101.641 88.0336 101.69 87.4989C102.179 82.9039 102.03 80.2736 101.479 75.4927H101.28C100.941 77.1057 100.946 80.6253 100.818 82.4389C100.724 83.7409 101.403 88.6701 100.996 89.2427C100.49 88.2255 100.305 84.8686 99.2567 82.0901L96.9168 75.8821Z" fill="#312482"/>
<path fill-rule="evenodd" clip-rule="evenodd" d="M101.635 107.957L102.601 107.803C103.125 107.512 102.797 106.396 104.323 107.268C105.014 107.663 104.745 107.384 105.787 107.422C106.095 106.713 105.949 106.879 105.454 105.6L103.6 100.711C102.759 98.4966 102.587 95.256 101.892 93.5645C101.582 93.9132 101.851 93.3668 101.72 93.9394L101.758 95.2472C102.425 101.868 101.398 103.426 101.632 107.957" fill="white"/>
<path fill-rule="evenodd" clip-rule="evenodd" d="M85.923 95.9185C86.9977 95.0785 93.7862 92.9366 95.7747 92.5675C96.5478 92.425 98.7765 92.2768 99.2626 91.6781C97.2887 91.4485 94.3748 92.0734 91.9704 91.9251C90.0347 91.806 86.7283 91.402 84.9419 91.5386L84.9097 92.611L85.759 93.1022C85.879 94.163 85.6887 94.0352 85.2025 94.6135C85.3958 95.5 85.1879 95.6802 85.9317 95.9156" fill="white"/>
<path fill-rule="evenodd" clip-rule="evenodd" d="M118.003 91.3179C117.926 90.9342 118.046 90.414 117.833 90.0362C117.584 89.6002 116.726 89.5944 117.203 88.5597C117.316 88.4426 117.405 88.3045 117.464 88.1533C117.522 88.0021 117.551 87.8408 117.547 87.6788C117.543 87.5167 117.506 87.357 117.44 87.2089C117.373 87.0608 117.278 86.9273 117.159 86.8159C115.059 87.7343 112.878 88.4464 110.751 89.2485C107.958 90.3065 104.429 90.4256 103.609 90.9924C104.124 91.376 109.357 90.7599 110.637 90.85C113.083 91.0185 115.569 91.1406 117.997 91.3324" fill="white"/>
<path fill-rule="evenodd" clip-rule="evenodd" d="M96.9168 75.8824L99.2597 82.1165C100.308 84.895 100.493 88.2519 100.999 89.2691C101.418 88.6878 100.727 83.7674 100.821 82.4653C100.949 80.6517 100.944 77.1321 101.283 75.5191C101.283 74.7257 100.908 75.0221 100.039 75.0715C99.6784 75.5394 99.576 76.3038 98.712 75.9434C98.3723 75.7981 97.8979 74.8535 96.9197 75.894" fill="white"/>
<path fill-rule="evenodd" clip-rule="evenodd" d="M113.164 102.888C114.652 101.822 113.574 102.048 114.043 100.578C115.575 100.287 115.132 100.889 115.906 99.2931C114.948 99.0577 113.375 98.2439 112.391 97.7934C111.237 97.2586 110.306 96.8372 109.17 96.2908C106.771 95.1515 104.016 92.777 103.21 92.6753C103.383 93.1171 105.357 94.6574 105.825 95.0469L108.461 97.5173C108.884 97.9489 109.284 98.4019 109.659 98.8746C110.104 99.3861 110.476 99.7 110.88 100.206C111.674 101.2 112.52 101.833 113.147 102.888" fill="white"/>
<path fill-rule="evenodd" clip-rule="evenodd" d="M89.8033 103.074C90.881 104.455 90.6643 103.19 91.8299 103.841C92.4156 104.591 91.8591 104.49 92.193 105.004C92.3365 105.222 92.9398 105.524 93.2854 105.786C94.4392 102.917 96.5068 98.5751 98.3108 96.0117C98.712 95.4449 99.9889 93.7767 100.173 93.207C99.6491 93.3465 99.8805 93.2971 99.4852 93.7156C97.8861 95.3461 97.523 96.1163 95.1919 98.3658L89.8033 103.074Z" fill="white"/>
<path fill-rule="evenodd" clip-rule="evenodd" d="M113.041 79.8899C111.978 78.2246 111.718 79.4656 110.907 78.7651C110.095 78.0647 111.237 77.6404 109.378 77.1841C109.211 78.2769 106.985 82.4446 106.376 83.8019C105.474 85.8073 102.824 88.8764 102.695 89.6001C103.406 89.4518 105.661 86.0369 107.521 84.5808C108.186 84.0605 112.318 80.1224 113.041 79.8899Z" fill="white"/>
<path fill-rule="evenodd" clip-rule="evenodd" d="M87.0563 83.6016C87.8118 83.6219 92.5181 85.9674 93.5899 86.4614C96.1261 87.6385 98.6915 89.9026 99.6638 90.1496L98.4308 88.9406C97.2741 88.0221 95.2094 86.3248 94.3982 85.3047C93.6573 84.3747 89.9761 80.608 89.7711 80.0732C88.1955 80.8434 89.241 81.1748 88.8925 81.9479C88.3829 83.1104 87.4751 81.3985 87.0446 83.6161" fill="white"/>
<path fill-rule="evenodd" clip-rule="evenodd" d="M97.4117 107.469C99.573 107.469 97.8686 106.835 99.696 107.001C100.496 107.98 99.5701 107.73 101.342 107.96C101.389 105.713 101.034 102.845 100.853 100.578C100.75 99.2755 101.339 93.9307 101.146 93.6313C100.908 94.047 100.56 96.5232 100.434 97.1713C99.699 101.391 98.0443 104.196 97.4205 107.469" fill="white"/>
<path fill-rule="evenodd" clip-rule="evenodd" d="M109.802 105.434C111.018 105.373 110.781 104.272 111 103.69C112.019 103.432 112.757 104.048 113.024 102.917L107.542 98.2672C105.738 96.6455 103.591 93.5473 102.771 93.1113C103.31 94.3669 105.407 96.6455 106.602 99.0258L109.802 105.434Z" fill="white"/>
<path fill-rule="evenodd" clip-rule="evenodd" d="M89.7828 79.9916C90.3861 80.2357 94.1463 83.6333 95.2153 84.4849C97.2418 86.0979 99.2245 89.324 100.062 89.7163C99.8219 89.0362 98.6241 87.4726 98.1614 86.8303C95.7776 83.5141 94.4099 79.6952 93.1565 77.7973C92.9691 77.5067 93.0013 77.5532 92.8871 77.4863C91.4228 78.0676 92.4976 77.9426 92.0085 78.8465C91.6366 79.5411 91.1768 79.0848 90.3451 79.1778C89.9292 79.7591 90.0873 79.297 89.7769 79.9887" fill="white"/>
<path fill-rule="evenodd" clip-rule="evenodd" d="M115.868 99.1621C116.966 98.2902 115.97 98.171 116.16 96.9794C117.332 95.9738 116.767 97.27 117.508 95.4797C115.027 95.0437 112.552 94.6078 109.993 94.1602C108.838 93.9415 107.708 93.6055 106.622 93.1575C106.095 92.9628 105.565 92.7652 105.017 92.5762C103.067 91.8729 103.773 92.1228 103.497 92.335C105.741 93.2046 107.912 94.2483 109.99 95.4565L115.868 99.1621Z" fill="white"/>
<path fill-rule="evenodd" clip-rule="evenodd" d="M85.9229 87.3797C87.2525 87.8447 91.1943 88.3388 92.8753 88.6294C94.6998 88.9433 97.6753 90.0826 99.2713 90.7395C99.1366 90.2977 99.6403 90.6029 97.8744 89.8501C97.2418 89.5827 96.8465 89.3938 96.2286 89.1206C92.2721 87.3768 89.1209 84.6826 86.9011 83.645C86.0488 84.886 86.6902 84.3367 86.822 85.2116C86.9626 86.1794 86.3798 85.9556 85.7443 86.252L85.4514 87.1646L85.9229 87.3797Z" fill="white"/>
<path fill-rule="evenodd" clip-rule="evenodd" d="M93.4904 105.801C94.817 106.719 94.3689 105.184 95.5052 105.984C96.1202 106.411 95.5814 106.46 96.0909 106.919C96.2842 107.1 96.9226 107.21 97.2624 107.39C97.3766 105.283 98.1819 102.034 98.5802 99.889C99.0078 97.5639 100.045 95.6399 100.73 93.5415C100.255 93.6839 100.46 93.5241 100.144 94.1751C97.7749 99.2147 98.4777 97.933 95.3441 102.877C94.7028 103.888 94.0761 104.725 93.4845 105.801" fill="white"/>
<path fill-rule="evenodd" clip-rule="evenodd" d="M85.8263 96.1222C85.3372 97.7556 86.7371 96.5872 86.9801 97.7556C87.1178 98.4269 86.0518 99.1332 87.4253 99.7144L93.1565 95.6019C94.2459 94.8201 95.0103 94.4801 96.3311 93.8581C97.2272 93.4309 98.7735 92.9688 99.4266 92.3032C97.9623 92.4456 94.9546 94.047 92.9486 94.4975C90.5208 95.0381 88.216 95.5787 85.8263 96.128" fill="white"/>
<path fill-rule="evenodd" clip-rule="evenodd" d="M101.479 75.5189C102.03 80.2999 102.179 82.9301 101.69 87.5251C101.635 88.0599 101.488 88.7283 101.69 89.173C101.843 88.8824 103.878 78.341 105.386 75.8822C105.064 75.3358 105.492 75.641 104.912 75.4027C104.165 75.0946 104.033 76.1699 103.155 75.8444C102.718 75.4957 102.806 75.2893 102.452 75.1091C101.529 74.6325 101.591 75.1934 101.488 75.5189" fill="white"/>
<path fill-rule="evenodd" clip-rule="evenodd" d="M109.378 77.1844C108.206 75.9725 108.423 77.1467 107.448 76.8938C106.473 76.6409 107.284 75.3767 105.562 75.7807C105.322 78.0302 104.663 80.7215 104.253 82.9826C103.857 85.174 102.745 87.2928 102.094 89.3011C102.613 89.1441 102.282 89.3853 102.996 87.9205C105.096 83.6249 104.554 84.3457 107.366 80.0734L108.807 77.8703C108.857 77.7948 108.977 77.6262 109.035 77.5535L109.378 77.1844Z" fill="white"/>
<path fill-rule="evenodd" clip-rule="evenodd" d="M117.689 95.1514C117.467 93.3873 117.103 93.925 117.118 93.3437C117.162 92.28 117.733 93.3437 117.997 91.5098C115.458 91.6086 112.971 91.8207 110.42 92.0097C108.778 92.1317 104.414 91.3877 103.6 91.6289C105.175 92.2887 108.772 92.5008 110.83 93.1722C112.213 93.6198 116.515 95.1805 117.692 95.1514" fill="white"/>
<path fill-rule="evenodd" clip-rule="evenodd" d="M117.262 86.6215C116.62 85.116 116.228 85.7496 115.938 85.1247C115.715 84.6423 116.275 84.0087 115.955 83.5582C115.481 82.8868 116.032 83.2879 115.37 83.2472C108.101 88.252 111.226 86.5052 104.285 89.9318L103.448 90.5131C105.732 89.9318 107.498 88.842 109.958 88.2723C112.418 87.7027 114.799 87.1504 117.256 86.6186" fill="white"/>
<path fill-rule="evenodd" clip-rule="evenodd" d="M84.9565 91.3093C87.188 91.2047 89.5338 90.978 91.783 90.8152C94.4187 90.6263 96.5097 91.0593 99.0634 91.2453L98.3166 90.8879C98.1028 90.8268 97.6079 90.7774 97.359 90.7367C96.703 90.635 96.085 90.5304 95.4642 90.4229C91.3642 89.7108 88.3565 88.0803 85.6447 87.624C85.2025 87.7519 85.4221 87.5281 85.2698 87.967C84.9125 89.0133 85.8907 87.8478 85.7735 89.8038C85.3284 90.1497 85.3928 89.9607 84.9243 90.2514L84.9565 91.3093Z" fill="white"/>
<path fill-rule="evenodd" clip-rule="evenodd" d="M106.815 107.015C107.565 106.504 106.909 106.483 107.627 105.795C108.684 105.591 108.309 105.923 108.9 105.969C109.158 105.986 109.896 105.748 109.592 105.527C108.772 103.603 105.562 100.296 103.881 96.4391C103.655 95.9247 102.686 93.6228 102.302 93.4106C102.49 94.5005 104.013 97.5086 104.604 100.095L105.861 105.559C106.259 107.521 106.051 107.126 106.815 107.012" fill="white"/>
<path fill-rule="evenodd" clip-rule="evenodd" d="M87.4253 99.7146C87.1324 100.712 88.0813 100.441 88.9189 100.732C89.2469 101.758 88.6729 101.865 89.0829 102.377C89.4929 102.888 89.3259 102.621 89.7711 102.836L94.3484 97.5174C96.5127 95.1923 97.5025 94.8552 99.1542 93.3817C99.6609 92.9283 99.368 93.3352 99.7136 92.751C98.8994 93.0939 97.4879 94.178 96.6913 94.7535C95.7857 95.458 94.8149 96.0759 93.792 96.599C92.5796 97.1977 88.3654 99.5315 87.4253 99.7146Z" fill="white"/>
<path fill-rule="evenodd" clip-rule="evenodd" d="M93.177 77.2306C93.6456 78.3205 97.4674 83.2207 98.1292 84.4965C98.4543 85.1272 98.6446 85.6591 98.9229 86.2578C99.4178 87.3157 99.9332 88.4986 100.478 89.4054C100.519 88.6992 98.6593 84.482 98.3284 83.0317C97.7749 80.6195 97.2594 78.2159 96.6766 75.9286L96.3691 75.853C94.981 76.0797 96.3545 77.4544 94.6384 77.0824C93.8213 76.9051 94.2811 76.4372 93.1741 77.219" fill="white"/>
<path fill-rule="evenodd" clip-rule="evenodd" d="M115.194 83.2063C115.519 82.7762 115.311 83.1075 115.425 82.5582C113.853 81.3491 115.106 82.3373 113.753 81.7706C113.422 80.4075 114.257 80.6749 113.042 79.8901C112.752 80.3753 112.411 80.8275 112.022 81.2387C111.507 81.82 111.279 82.0873 110.833 82.6047C109.981 83.5928 109.223 84.3311 108.444 85.3192C107.687 86.2067 106.825 87.0009 105.878 87.685C105.292 88.1384 103.462 89.4288 103.125 90.0711C104.543 89.3736 106.561 87.5368 108.868 86.2929C109.767 85.8075 114.597 83.247 115.194 83.2092" fill="white"/>
</g>
</g>
<defs>
<clipPath id="clip0_19_108">
<rect width="204" height="248" fill="white"/>
</clipPath>
<clipPath id="clip1_19_108">
<rect width="205" height="248" fill="white" transform="translate(-1)"/>
</clipPath>
</defs>
</svg>
