<svg id="Layer_1" data-name="Layer 1" xmlns="http://www.w3.org/2000/svg" viewBox="0 0 1825.54839 679.1305"><defs><style>.cls-1{fill:#fff;}</style></defs><path class="cls-1" d="M69.3871,902.41482a4.78338,4.78338,0,0,0,.74081-1.39015c.24455-1.6198.395-3.25559.53337-4.88932,3.06266-36.1561,17.37992-66.778,45.03282-90.68584,15.40077-13.315,33.24341-22.06281,52.95114-27.07723a141.88468,141.88468,0,0,1,22.275-3.77992c4.462-.40227,8.96532-.47751,13.45012-.47844q174.87793-.03615,349.75588-.00968a22.3114,22.3114,0,0,1,3.91856.24637c2.25949.40521,3.3523,1.76237,3.47956,4.07646.048.87277.01788,1.75.01792,2.62522q.00073,94.1963-.00008,188.39259c0,.87518.03416,1.75311-.02189,2.625a4.30975,4.30975,0,0,1-4.06145,4.353,12.96333,12.96333,0,0,1-1.6395.04934c-.98521.00693-1.97045.00287-2.95569.00287q-122.66086.00009-245.32174-.01375a39.67973,39.67973,0,0,0-11.67063,1.40787c-15.88242,4.81724-24.68292,19.142-24.93076,32.01095-.02528,1.3123-.06654,2.62466-.0666,3.937q-.00493,99.61176-.00754,199.22354a38.55709,38.55709,0,0,0,1.40247,12c4.25388,13.20128,13.216,21.3405,26.64434,24.5048a37.638,37.638,0,0,0,8.47492.76614q34.31856.08757,68.63746.03282,88.99895.00006,177.99785.00176c1.2038.00008,2.41417-.0482,3.61007.05642a3.84011,3.84011,0,0,1,3.88524,4.01319c.05545.872.02337,1.74983.02337,2.625q.00109,93.21168-.00028,186.42333c0,.87514.03436,1.75359-.0279,2.62476a4.13225,4.13225,0,0,1-3.86768,4.14157,11.87655,11.87655,0,0,1-1.63722.08351c-1.09458.01234-2.18936.005-3.28406.005q-172.57907.00024-345.15818.00841a168.76849,168.76849,0,0,1-21.94841-1.16011c-30.917-4.04753-57.94943-16.19773-79.80025-38.82492a123.91991,123.91991,0,0,1-29.77464-51.83792,138.75684,138.75684,0,0,1-5.4587-30.93663c-.09327-1.52447-.31732-3.04433-.55819-4.554a3.56209,3.56209,0,0,0-.63953-1.08923Z" transform="translate(-69.3871 -774.09615)"/><path class="cls-1" d="M1532.979,1453.22664c-1.17317-.21758-2.33863-.49807-3.52078-.642-5.75164-.70011-11.55059-1.11067-17.25539-2.0798-48.62036-8.26043-87.07885-39.88431-102.02176-87.10077a133.96112,133.96112,0,0,1-6.04777-31.48334c-.27962-4.14382-.54472-8.29938-.54561-12.44965q-.04209-204.98124-.018-409.96251a134.74853,134.74853,0,0,1,10.85872-54.29692c16.00524-36.806,43.51568-60.87888,81.73521-72.8493a132.35523,132.35523,0,0,1,25.66866-5.15607,151.4624,151.4624,0,0,1,16.05657-.82816q116.26485.05886,232.52969.02684,57.96823,0,115.93647,0c.87582,0,1.75453.04779,2.62683-.008,2.97742-.19051,5.10066.88187,5.95371,3.907V974.63091a6.34541,6.34541,0,0,0-.47872,1.16426c-.41811,2.10226-1.90979,2.794-3.80994,2.91136-1.19995.07411-2.40616.07076-3.60947.07086q-57.30715.00491-114.61432.0027-65.84585.00006-131.69152.02317a37.30547,37.30547,0,0,0-7.84088.56945c-13.48988,2.9317-22.59165,10.9282-27.07278,24.04009-1.47066,4.30344-1.684,8.78276-1.684,13.28162q.001,98.95491.01332,197.90978c.00048,2.18382.12669,4.373.30568,6.55051a34.96583,34.96583,0,0,0,27.0277,30.61022,43.39277,43.39277,0,0,0,9.78611.77672q122.496.00288,244.99218.00164c.9852,0,1.97345-.04588,2.95465.01771a19.98637,19.98637,0,0,1,2.58577.369,2.956,2.956,0,0,1,2.65089,2.52053,2.73792,2.73792,0,0,0,.4853.82312v192.35741c-.50936,1.702-1.23411,3.23968-2.97,4.054-.1554.07293-.212.35615-.3145.54159Z" transform="translate(-69.3871 -774.09615)"/><path class="cls-1" d="M1891.65094,1453.22664c.10248-.18544.1591-.46866.3145-.54159,1.73593-.8143,2.46068-2.352,2.97-4.054v4.59557Z" transform="translate(-69.3871 -774.09615)"/><path class="cls-1" d="M1136.703,1127.02019c.24866-2.57211.49364-4.63035.6391-6.69557.538-7.6369,1.0269-15.2773,1.56521-22.9142.53831-7.63651,1.115-15.27034,1.67235-22.90554.26277-3.59972.52948-7.19919.77711-10.8.73565-10.69285,1.433-21.38843,2.20135-32.07891.75265-10.472,1.59359-20.93758,2.359-31.40868.55009-7.52642,1.01423-15.05911,1.563-22.58564.53286-7.30786,1.14486-14.61,1.68509-21.91733.54833-7.41681,1.03051-14.8385,1.58045-22.2552.5339-7.19807,1.12617-14.39181,1.67587-21.58872.51641-6.76109,1.00076-13.52463,1.51773-20.28567q.863-11.28577,1.75887-22.56906.75431-9.64953,1.51421-19.29863.87975-10.95517,1.79214-21.90772c.511-6.21268.99772-12.42756,1.54974-18.63662q.81348-9.14874,1.74347-18.287c.44168-4.35041.96932-8.69213,1.467-13.03675.037-.32257.14186-.63737.2595-1.14882.67495-.09315,1.39889-.22126,2.12845-.28448.54336-.04709,1.094-.01065,1.64139-.01065q94.42449-.0001,188.84889-.04061a12.5,12.5,0,0,1,7.20081,2.0213,6.83441,6.83441,0,0,1,.07923,3.14655q-.90791,12.92794-1.83545,25.85454c-.54592,7.52648-1.1208,15.05084-1.676,22.57666q-.39825,5.39931-.76957,10.80058c-.73662,10.80217-1.45062,21.6059-2.20159,32.40708q-1.29714,18.657-2.64142,37.31069-.97443,13.74572-1.95148,27.49123c-.7695,10.58041-1.58759,21.1573-2.34433,31.73861-.55395,7.74551-1.01832,15.49743-1.56737,23.24331-.5335,7.52721-1.14462,15.04888-1.68405,22.57569-.53944,7.52712-1.01816,15.05855-1.54942,22.58626-.54656,7.74566-1.12561,15.48905-1.68822,23.23359-.26951,3.70892-.545,7.41743-.79868,11.12747-.73854,10.80228-1.45286,21.60623-2.20439,32.40761q-1.28669,18.4928-2.61986,36.98244-1.31073,18.49168-2.62362,36.98313c-.765,10.58066-1.58783,21.15714-2.34473,31.73836-.554,7.74548-1.01808,15.49742-1.567,23.24331-.5335,7.52734-1.14422,15.04924-1.68357,22.57618s-1.018,15.0585-1.55,22.58608c-.54745,7.74557-1.12874,15.48877-1.69174,23.23322q-.39249,5.39961-.77086,10.80028c-.73822,10.80244-1.44252,21.60728-2.20905,32.40772-.751,10.58165-1.58229,21.15766-2.33975,31.73887-.55451,7.74545-1.02426,15.497-1.57283,23.24291-.53326,7.52731-1.12858,15.05021-1.67779,22.57643-.30248,4.1451-.56694,8.29292-.84672,12.43971-.26494,3.92828-.52339,7.85708-.79956,11.7846a5.9605,5.9605,0,0,1-.26631,1.01834,12.30434,12.30434,0,0,1-7.03274,2.11523q-99.84361-.064-199.68723-.03238c-10.48648.0004-19.45161-3.60207-26.72019-11.23183a38.23866,38.23866,0,0,1-5.347-7.447c-8.33789-14.50544-16.84707-28.91568-24.98305-43.53337q-31.90761-57.32763-63.55468-114.80012c-.63518-1.14809-1.22865-2.32211-1.91916-3.436-.85377-1.377-2.32909-1.42666-3.15993-.11171-.58273.92213-1.05962,1.91147-1.57612,2.87487-19.633,36.62139-39.34682,73.19878-59.61587,109.47423-9.44186,16.89816-18.97256,33.74487-29.04871,50.27723a38.297,38.297,0,0,1-6.95175,8.67752,35.28306,35.28306,0,0,1-23.592,9.24972c-.766.01715-1.53257.00537-2.29894.00537q-99.67942.00036-199.35878-.00257a32.33541,32.33541,0,0,1-3.60754-.086c-2.12838-.2397-3.05893-1.21677-3.30439-3.39-.20861-1.84716-.36209-3.70209-.48418-5.55722-.52448-7.96675-1.00409-15.93651-1.54653-23.902-.53506-7.85612-1.14658-15.707-1.68677-23.56272-.5402-7.85608-1.01784-15.71644-1.55218-23.57293-.5418-7.96539-1.119-15.92837-1.68169-23.89232-.26205-3.70934-.542-7.41752-.78677-11.128-.74179-11.24076-1.44565-22.484-2.21113-33.72314-.75061-11.02075-1.5778-22.03624-2.335-33.05655-.54733-7.96515-1.01334-15.93583-1.55586-23.9013-.535-7.85616-1.12241-15.70872-1.68353-23.56307-.26495-3.7093-.53623-7.41816-.78032-11.12882-.73942-11.2408-1.4509-22.4835-2.20343-33.72342q-1.28211-19.1513-2.61894-38.29885c-.76705-11.01954-1.58505-22.03559-2.342-33.05584-.54709-7.96519-1.00749-15.93627-1.55-23.90178-.535-7.85618-1.1441-15.70732-1.68465-23.56314-.54052-7.856-1.02025-15.71614-1.55643-23.57244-.5511-8.07433-1.13917-16.14615-1.70915-24.21919-.25416-3.60038-.51541-7.20035-.75273-10.80186-.74067-11.24087-1.44673-22.48408-2.2131-33.72319-.75149-11.02052-1.58-22.03579-2.33767-33.05591-.54765-7.96522-1.01311-15.93605-1.55486-23.9017-.53426-7.8562-1.11964-15.70893-1.67988-23.56337-.25677-3.6-.52023-7.19951-.75783-10.80076-.74163-11.24066-1.44837-22.48367-2.21422-33.72266-.751-11.02063-1.57479-22.03629-2.33486-33.05631-.63217-9.16523-1.22064-18.33348-1.81484-27.50127a4.82637,4.82637,0,0,1,.18508-1.04753,12.346,12.346,0,0,1,6.72124-1.976q94.75285.07256,189.50576.038c.32845,0,.6569-.005.98528.00148,3.11807.06127,4.29059,1.03529,4.91639,4.11424a11.7288,11.7288,0,0,1,.20159,1.62538c.50054,8.29706.96644,16.59629,1.49473,24.89156s1.119,16.58639,1.67859,24.87959c.25773,3.81939.51874,7.63863.75634,11.4593.74015,11.89847,1.44429,23.79925,2.211,35.696.75265,11.67837,1.58557,23.35155,2.344,35.02956.54577,8.40387,1.004,16.81341,1.54356,25.21769.53261,8.29507,1.12016,16.58661,1.6802,24.87994.258,3.81943.52139,7.63858.75883,11.45931.73894,11.89862,1.44051,23.79966,2.20624,35.69656.75161,11.67836,1.58437,23.35151,2.3428,35.02946.54569,8.40394,1.00549,16.81343,1.54476,25.21779.53238,8.29505,1.12281,16.58635,1.67507,24.88014q.43616,6.54772.82851,13.09836c.30087,4.91281.56493,9.828.8966,14.73874a14.34832,14.34832,0,0,0,.57824,4.10427,1.62375,1.62375,0,0,0,2.37656-.53478c.52123-.83154.94318-1.72582,1.39737-2.59839,15.65122-30.06578,31.42255-60.06855,48.03434-89.61843,5.99894-10.67125,12.28769-21.18012,18.46954-31.74819a34.75487,34.75487,0,0,1,7.48765-9.07147,34.0894,34.0894,0,0,1,20.87993-8.44586c1.31125-.06337,2.625-.10881,3.93752-.109q49.26489-.00887,98.52985-.01214a38.52817,38.52817,0,0,1,12.92526,1.81248,34.8075,34.8075,0,0,1,18.97793,15.36072q6.0552,10.13964,11.95971,20.369c18.99125,32.85739,36.9422,66.28114,54.42862,99.95738a17.15619,17.15619,0,0,0,1.46874,2.55011C1135.24588,1126.67234,1135.88884,1126.71429,1136.703,1127.02019Z" transform="translate(-69.3871 -774.09615)"/></svg>