<svg id="Layer_1" data-name="Layer 1" xmlns="http://www.w3.org/2000/svg" viewBox="0 0 248.36691 85.9218"><defs><style>.cls-1{fill:#db1f49;}.cls-2{fill:#6f7071;}</style></defs><path class="cls-1" d="M93.71383,21.73288c0,8.47178,6.2691,14.72057,16.75719,14.72057a29.47566,29.47566,0,0,0,12.89722-2.70874l3.92775,5.34474c-5.43283,2.86292-10.654,4.3696-18.66526,4.3696-16.72165,0-29.006-8.04336-29.006-21.72617,0-13.66916,12.28436-21.721,29.006-21.721,8.01127,0,12.63311,1.16641,18.27415,3.58738l-4.02256,6.15238c-4.26972-2.272-7.9858-2.73251-12.4113-2.73251-10.48809,0-16.75719,6.237-16.75719,14.7121"/><path class="cls-1" d="M157.51424,0c-16.1901,0-27.86155,8.06372-27.86155,21.733,0,13.6827,11.67145,21.72606,27.86155,21.72606,16.19853,0,27.875-8.04336,27.875-21.72606,0-13.66927-11.67651-21.733-27.875-21.733m0,36.70062c-8.90515,0-13.81822-6.69229-13.81822-14.96939,0-8.28206,4.91307-14.98293,13.81822-14.98293s13.8283,6.70087,13.8283,14.98293c0,8.2771-4.92325,14.96939-13.8283,14.96939"/><polyline class="cls-1" points="227.472 24.88 227.472 42.357 240.843 42.357 240.843 1.085 227.472 1.085 227.472 16.833 207.021 16.833 207.021 1.085 193.668 1.085 193.668 42.357 207.021 42.357 207.021 24.88"/><rect class="cls-1" x="57.46523" y="1.09367" width="14.08549" height="41.26324"/><path class="cls-1" d="M17.05861,19.98575v3.9481A105.46318,105.46318,0,0,1,35.3835,42.357H51.15713c-5.487-6.44181-13.90456-14.09923-20.10768-17.95424,7.28666-.28943,15.38928-3.2471,15.38928-11.60035C46.43873,2.08576,34.98061.12028,23.40051.12028,13.9401.12028,5.23134.55365,0,.98537V42.357H13.15623V7.22239a81.25214,81.25214,0,0,1,10.307-.56047c6.77532,0,10.20532,2.23651,10.20532,6.1405,0,3.33855-1.4187,7.33068-16.60989,7.18333"/><path class="cls-2" d="M1.05812,54.74114h3.369v3.27945h-3.369Zm0,6.73807h3.369V78.30414h-3.369Z"/><path class="cls-2" d="M29.61381,78.30248V67.5013c0-2.05538-.6417-3.7399-2.99663-3.7399-2.75618,0-3.72626,2.77819-3.72626,5.36345v9.17763H19.51848V67.5013c0-2.05538-.63828-3.7399-2.98981-3.7399-2.763,0-3.772,2.77819-3.772,5.36345v9.17763H9.391V65.3461c0-1.27315-.0339-2.592-.16255-3.86854H12.3893l.09651,2.88823a5.49054,5.49054,0,0,1,5.15177-3.22509,4.837,4.837,0,0,1,4.90625,3.42824A5.62247,5.62247,0,0,1,27.699,61.1407c3.66023,0,5.31431,2.48865,5.31431,5.95419V78.30248"/><path class="cls-2" d="M181.50038,78.30424l-.09817-2.66307c-2.41083,4.49659-10.87238,4.02085-10.87238-1.78609,0-4.3696,4.18846-6.16758,10.77246-5.851.00341-.02542.35722-3.15741-1.8081-4.12584-1.40852-.63487-4.42881-.54177-6.97005.96843l-.20315-2.59539c3.90233-1.61508,12.281-2.63259,12.281,5.167V74.5628a31.19668,31.19668,0,0,0,.19633,3.74144m-6.59413-2.12812c2.47677-.59416,3.198-3.08115,3.0981-6.11674,0,0-7.64894-.61627-7.439,3.61621.12193,2.487,2.509,2.93742,4.34087,2.50053"/><path class="cls-2" d="M47.35125,78.30424l-.10157-2.66307C44.84225,80.13766,36.38406,79.662,36.38406,73.855c0-4.3696,4.17322-6.16747,10.76234-5.851,0-.02532.36063-3.15907-1.80134-4.12574-1.41533-.63487-4.43221-.54177-6.98017.96667l-.1998-2.59373c3.90575-1.61508,12.28437-2.63259,12.28437,5.167v7.14447a31.91228,31.91228,0,0,0,.19638,3.74155m-6.59418-2.12988c2.47346-.5925,3.20143-3.0795,3.09474-6.11508,0,0-7.63877-.61617-7.43561,3.61631.11852,2.487,2.509,2.93731,4.34087,2.49877"/><path class="cls-2" d="M208.32081,85.02537l.20822-2.8561a10.61619,10.61619,0,0,0,5.01294,1.20547c5.81542-.07956,5.482-4.908,5.482-8.00275a6.34511,6.34511,0,0,1-5.21785,2.93049c-4.91137.01695-6.82777-4.28662-6.82777-8.48014,0-4.47624,1.9164-8.68,6.90061-8.68a5.57232,5.57232,0,0,1,5.28047,3.12693V61.481h3.22675V77.35948c0,9.36394-8.32948,9.4402-14.06534,7.66589m6.52655-21.29786c-3.46224,0-4.23589,3.29464-4.23589,6.12531,0,2.62412.816,5.85769,4.20872,5.85769,3.27087,0,4.30532-3.303,4.30532-5.85769,0-2.68508-1.01751-6.12531-4.27815-6.12531"/><path class="cls-2" d="M55.36077,85.02371l.2015-2.85444a10.62165,10.62165,0,0,0,5.00953,1.20547c5.829-.07956,5.48192-4.908,5.48192-8.00451a6.31928,6.31928,0,0,1-5.211,2.93225c-4.908.01695-6.83123-4.28662-6.83123-8.48014,0-4.47624,1.92327-8.68,6.8939-8.68a5.59342,5.59342,0,0,1,5.2906,3.12693v-2.79h3.23021V77.35948c0,9.36394-8.33967,9.4402-14.0654,7.66423m6.52991-21.2962c-3.4656,0-4.24606,3.29464-4.24606,6.12531,0,2.62412.81436,5.85769,4.20711,5.85769,3.26239,0,4.31033-3.303,4.31033-5.85769,0-2.68508-1.00733-6.12531-4.27138-6.12531"/><path class="cls-2" d="M74.3985,54.74114H77.754v3.27945H74.3985Zm0,6.73807H77.754V78.30414H74.3985Z"/><path class="cls-2" d="M229.45272,70.76028c.19808,5.873,5.42947,6.623,10.09873,4.37467l.19809,2.62587c-6.755,2.19239-13.74884.89392-13.74884-7.93848,0-4.615,2.92378-8.67988,7.59821-8.67988,7.91978,0,7.02761,9.61782,7.02761,9.61782m-6.99713-7.3036c-2.86632,0-4.2054,3.06947-4.2054,5.22291h7.97568c0-2.39554-.91253-5.22291-3.77028-5.22291"/><path class="cls-2" d="M104.08846,70.76028c.19809,5.873,5.43278,6.623,10.09528,4.37467l.19808,2.62587c-6.7516,2.19239-13.75891.89392-13.75891-7.93848,0-4.615,2.934-8.67988,7.60322-8.67988,7.93166,0,7.03267,9.61782,7.03267,9.61782m-6.99371-7.3036c-2.86287,0-4.20541,3.06947-4.20541,5.22291h7.96891c0-2.39554-.90575-5.22291-3.7635-5.22291"/><rect class="cls-2" x="119.405" y="74.82846" width="3.60102" height="3.47567"/><path class="cls-2" d="M134.89415,69.82234c0-7.65566,7.37294-10.119,13.79786-7.979l-.20149,2.69179c-4.202-1.96723-9.96833-.74316-9.96833,5.28719,0,5.83412,5.49209,7.50676,10.00222,5.5141l.1676,2.66142c-5.32278,1.81317-13.79786.4249-13.79786-8.17552"/><path class="cls-2" d="M161.3708,61.14235a5.458,5.458,0,0,0-5.21615,3.12869V54.74125h-3.36056v23.563h3.36056V69.48548c0-2.61905,1.01074-5.72232,4.10553-5.72232,2.88824,0,3.3368,2.211,3.3368,4.61005v9.931h3.39115V67.66208c0-3.83289-1.58129-6.51973-5.61733-6.51973"/><path class="cls-2" d="M199.9812,78.30248v-9.931c0-2.3567-.43689-4.61006-3.33359-4.61006-3.12693,0-4.10373,2.86292-4.10373,5.50729v9.03379h-3.36232V65.3461a37.89961,37.89961,0,0,0-.171-3.86678h3.16423l.09816,2.88647a5.87522,5.87522,0,0,1,5.44973-3.22509c4.17327,0,5.65805,2.66142,5.65805,6.51973v10.642"/><path class="cls-2" d="M93.62749,78.30248v-9.931c0-2.3567-.43683-4.61006-3.3369-4.61006-3.12021,0-4.10382,2.86292-4.10382,5.50729v9.03379H82.8245V65.3461a36.11064,36.11064,0,0,0-.17437-3.86854h3.17435l.09817,2.88823a5.87522,5.87522,0,0,1,5.44978-3.22509c4.16981,0,5.65117,2.66142,5.65117,6.51973v10.642"/><rect class="cls-2" x="244.7693" y="74.82846" width="3.59761" height="3.47567"/></svg>