<svg id="Layer_1" data-name="Layer 1" xmlns="http://www.w3.org/2000/svg" viewBox="0 0 60.51041 81.49979"><defs><style>.cls-1{fill:#fff;}</style></defs><path d="M102.72347,64.104c-.00012,6.28328-.06636,12.56748.02082,18.84955.0698,5.02891-2.04155,9.14269-5.09082,12.88478-5.13321,6.29956-11.80923,10.64047-18.79152,14.5622-1.71.96046-3.48189,1.82338-5.27817,2.6106a2.638,2.638,0,0,1-1.93637.09366C62.60638,108.82259,54.0901,103.77,47.5178,96.009a20.815,20.815,0,0,1-5.27047-14.26912c.185-12.61709.05741-25.23876.05922-37.85856.0003-2.133.00683-2.10093,2.12-2.17685,6.70221-.24079,13.37115-.73864,19.622-3.47678,2.94108-1.28831,5.6847-2.88262,7.40962-5.77819a1.08583,1.08583,0,0,1,1.95665-.151c2.95266,4.53879,7.59031,6.23049,12.45363,7.59658A59.26274,59.26274,0,0,0,100.693,41.67243c1.6345.03643,2.0788.56687,2.06175,2.14435C102.68166,50.5785,102.72358,57.34147,102.72347,64.104Z" transform="translate(-42.24479 -31.7501)"/><path class="cls-1" d="M72.0368,86.287,58.06084,73.1032c1.29018-1.14411,2.34343-2.17852,3.5191-3.04728.28-.20692,1.08423-.01506,1.45128.25742,2.12675,1.57876,4.19485,3.2365,6.398,4.95755a86.20453,86.20453,0,0,1,19.243-16.65967c2.02761,1.88638,2.02714,1.97959.14923,3.86356a80.52175,80.52175,0,0,0-16.63044,23.602C72.12816,86.21529,72.00637,86.3271,72.0368,86.287Z" transform="translate(-42.24479 -31.7501)"/></svg>