<svg id="Layer_1" data-name="Layer 1" xmlns="http://www.w3.org/2000/svg" viewBox="0 0 60.51041 81.49979"><path d="M102.72347,64.104c-.00012,6.28328-.06636,12.56748.02082,18.84955.0698,5.02891-2.04155,9.14269-5.09082,12.88478-5.13321,6.29956-11.80923,10.64047-18.79152,14.5622-1.71.96046-3.48189,1.82338-5.27817,2.6106a2.638,2.638,0,0,1-1.93637.09366C62.60638,108.82259,54.0901,103.77,47.5178,96.009a20.815,20.815,0,0,1-5.27047-14.26912c.185-12.61709.05741-25.23876.05922-37.85856.0003-2.133.00683-2.10093,2.12-2.17685,6.70221-.24079,13.37115-.73864,19.622-3.47678,2.94108-1.28831,5.6847-2.88262,7.40962-5.77819a1.08583,1.08583,0,0,1,1.95665-.151c2.95266,4.53879,7.59031,6.23049,12.45363,7.59658A59.26274,59.26274,0,0,0,100.693,41.67243c1.6345.03643,2.0788.56687,2.06175,2.14435C102.68166,50.5785,102.72358,57.34147,102.72347,64.104ZM48.70509,65.8067c0,4.73813.07777,9.47794-.02436,14.21387a15.35577,15.35577,0,0,0,3.526,10.151c5.22234,6.58476,12.21137,10.77271,19.68049,14.26989a1.95549,1.95549,0,0,0,1.46951-.06711c6.6146-3.13937,12.84062-6.86913,17.87414-12.29533,2.87761-3.10211,5.05785-6.60585,5.078-11.01043.04689-10.27461-.01016-20.54972.04253-30.82429.00795-1.54956-.57136-1.98321-2.04612-2.08138A81.75607,81.75607,0,0,1,84.03251,47.0986c-4.14215-.8111-8.10187-2.23989-10.65114-6.02288-.56962-.84529-1.25082-.76881-1.77744.04086-1.68543,2.59134-4.24209,3.96962-7.01682,4.97354a39.05819,39.05819,0,0,1-13.93664,2.09725c-1.40756-.01856-1.9904.48088-1.97129,1.96784C48.74624,55.37162,48.7052,60.58942,48.70509,65.8067Z" transform="translate(-42.24479 -31.7501)"/><path d="M72.0368,86.287,58.06084,73.1032c1.29018-1.14411,2.34343-2.17852,3.5191-3.04728.28-.20692,1.08423-.01506,1.45128.25742,2.12675,1.57876,4.19485,3.2365,6.398,4.95755a86.20453,86.20453,0,0,1,19.243-16.65967c2.02761,1.88638,2.02714,1.97959.14923,3.86356a80.52175,80.52175,0,0,0-16.63044,23.602C72.12816,86.21529,72.00637,86.3271,72.0368,86.287Z" transform="translate(-42.24479 -31.7501)"/></svg>