<svg id="Layer_1" data-name="Layer 1" xmlns="http://www.w3.org/2000/svg" viewBox="0 0 107.03238 100.54818"><defs><style>.cls-1{fill:#231f20;}.cls-2{fill:#fff;}</style></defs><path class="cls-1" d="M110.8549,104.35515H22.016a3.03579,3.03579,0,0,1-3.03222-3.03223V39.58073A3.03579,3.03579,0,0,1,22.016,36.54851H110.8549a3.03579,3.03579,0,0,1,3.03223,3.03222v61.74219A3.0358,3.0358,0,0,1,110.8549,104.35515ZM22.016,38.54851a1.03318,1.03318,0,0,0-1.03222,1.03222v61.74219a1.03318,1.03318,0,0,0,1.03222,1.03223H110.8549a1.03319,1.03319,0,0,0,1.03223-1.03223V39.58073a1.03318,1.03318,0,0,0-1.03223-1.03222Z" transform="translate(-18.98381 -22.22591)"/><rect class="cls-1" x="1" y="67.80648" width="92.90332" height="2"/><rect class="cls-2" x="81.29045" y="72.87097" width="4.20968" height="4.20968"/><path class="cls-1" d="M104.98381,99.80632H99.77434V94.59685h5.20947Zm-4.20947-1h3.20947V95.59685h-3.20947Z" transform="translate(-18.98381 -22.22591)"/><path class="cls-1" d="M78.08049,115.22575H54.40324v-12.8706H78.08049Zm-21.67725-2H76.08049v-8.8706H56.40324Z" transform="translate(-18.98381 -22.22591)"/><path class="cls-1" d="M91.33879,122.77409H40.91935V118.2902a5.07028,5.07028,0,0,1,5.06446-5.06445H86.27434a5.07027,5.07027,0,0,1,5.06445,5.06445Zm-48.41944-2H89.33879V118.2902a3.06767,3.06767,0,0,0-3.06445-3.06445H45.98381a3.06768,3.06768,0,0,0-3.06446,3.06445Z" transform="translate(-18.98381 -22.22591)"/><circle class="cls-2" cx="85.11303" cy="21.91935" r="21.91935"/><path class="cls-1" d="M102.41093,25.1914h2.42937c.08455.02048.16807.04839.25381.06027.78762.10918,1.5792.19458,2.36256.32829a1.4839,1.4839,0,0,1,1.40224,1.48511c.12171.88856.25173,1.776.37862,2.66385a.64258.64258,0,0,0,.95755.398q1.01152-.76854,2.02026-1.54075a1.68992,1.68992,0,0,1,2.39727-.02547,25.14322,25.14322,0,0,1,3.9613,3.68894,18.017,18.017,0,0,1,1.22042,1.54685A1.623,1.623,0,0,1,119.742,35.95c-.576.687-1.09723,1.42-1.63914,2.1354a.66.66,0,0,0,.38079.9248c.7875.1148,1.573.24922,2.36383.334,1.46.15655,1.71008.6082,1.91037,1.89576.11233.72214.20258,1.44772.30278,2.17175v2.42938c-.02128.09777-.049.19464-.06281.29345-.10834.775-.19343,1.55391-.32588,2.32471a1.48571,1.48571,0,0,1-1.48675,1.4007c-.8886.12147-1.776.25161-2.66386.37855a.64171.64171,0,0,0-.39513.9588c.57406.75446,1.17408,1.49081,1.71287,2.26957a1.60839,1.60839,0,0,1,.30755.97232,2.48516,2.48516,0,0,1-.44446,1.13763,23.50807,23.50807,0,0,1-3.75884,4.04813c-.45454.40036-.93446.77515-1.42591,1.12956a1.652,1.652,0,0,1-2.24742-.03506c-.67741-.56784-1.39962-1.08239-2.10472-1.617a.66122.66122,0,0,0-.9236.38366c-.11472.78752-.24951,1.573-.33413,2.36381-.15622,1.45975-.61072,1.70915-1.8972,1.90886-.7216.112-1.44655.2024-2.17.30254h-2.42937c-.09723-.02125-.19356-.049-.29183-.06273-.78791-.11029-1.58019-.19505-2.36325-.33254a1.45376,1.45376,0,0,1-1.3539-1.44421c-.11032-.89072-.20361-1.78365-.32461-2.67285a.4959.4959,0,0,0-.23021-.35594c-.2447-.0838-.45926-.35348-.78721-.084q-1.0985.90274-2.26231,1.72451a1.47485,1.47485,0,0,1-.89528.31765,2.71706,2.71706,0,0,1-1.21543-.4431,23.14282,23.14282,0,0,1-4.05336-3.75671c-.40082-.45454-.77455-.93554-1.13092-1.426a1.65534,1.65534,0,0,1,.02545-2.24854c.56067-.66744,1.06614-1.38132,1.59437-2.07591a.63885.63885,0,0,0-.38862-.96219c-.788-.11431-1.57314-.2569-2.36463-.33628-1.536-.154-1.6878-.747-1.86971-1.85112-.12089-.73382-.2071-1.47335-.30883-2.21031V43.41168c.022-.11045.0493-.22014.065-.33148.10947-.77528.194-1.5549.33037-2.32537a1.45473,1.45473,0,0,1,1.44583-1.35238c.89076-.11,1.78367-.20345,2.67286-.32454a.49548.49548,0,0,0,.355-.23164c.08428-.24453.35128-.45961.08207-.787-.602-.73216-1.18049-1.48628-1.72355-2.26292a1.54454,1.54454,0,0,1-.31616-.93318,2.59,2.59,0,0,1,.44185-1.17754,23.29734,23.29734,0,0,1,3.75792-4.05249c.45458-.40077.93542-.77474,1.42616-1.13077a1.655,1.655,0,0,1,2.24854.02749c.67743.56846,1.40049,1.08273,2.1059,1.61761a.65754.65754,0,0,0,.92666-.377c.115-.78788.24914-1.57386.33414-2.365.15663-1.458.60461-1.71063,1.89656-1.91135C100.96178,25.38192,101.68712,25.29158,102.41093,25.1914ZM87.33207,47.11956c.867.10707,1.7427.22985,2.62172.31953a1.72986,1.72986,0,0,1,1.65155,1.31772,11.23661,11.23661,0,0,0,.62725,1.53977,1.76364,1.76364,0,0,1-.18334,1.95681c-.49563.65582-.97951,1.32065-1.4833,1.97007a.3428.3428,0,0,0-.00758.51516,21.4197,21.4197,0,0,0,3.05792,3.04955.296.296,0,0,0,.4513-.00583c.6507-.52279,1.31812-1.02477,1.96833-1.54816a1.67569,1.67569,0,0,1,1.908-.22449,12.96352,12.96352,0,0,0,1.57734.64074,1.74568,1.74568,0,0,1,1.29463,1.67334c.07673.79234.206,1.57954.2862,2.37163.02358.233.122.31037.32659.31048q2.19693.00123,4.39386,0c.20471-.00012.30126-.07812.32661-.31048.09871-.90456.218-1.80716.34653-2.70808a1.51942,1.51942,0,0,1,1.05721-1.26841c.62495-.23649,1.24244-.49332,1.85863-.75209a1.70362,1.70362,0,0,1,1.8185.22509c.51054.39421,1.01745.79313,1.526,1.19.24526.19137.49055.3827.733.57181a24.46532,24.46532,0,0,0,3.31961-3.3441c.14469-.17563.08409-.27843-.03031-.41837-.51236-.62673-1.01327-1.26286-1.52785-1.88774a1.74512,1.74512,0,0,1-.24626-1.9791,13.28177,13.28177,0,0,0,.62371-1.54336,1.7976,1.7976,0,0,1,1.75388-1.352c.85452-.07279,1.70384-.20676,2.58447-.31749a20.87487,20.87487,0,0,0,.00007-4.97228c-.91-.11251-1.78531-.23791-2.66447-.32433a1.64254,1.64254,0,0,1-1.54952-1.2234,11.9257,11.9257,0,0,0-.72191-1.62341,1.63524,1.63524,0,0,1,.18608-1.90676c.52719-.66342,1.03926-1.33891,1.57037-1.99912a.29692.29692,0,0,0-.005-.45111,21.178,21.178,0,0,0-3.05075-3.05656.32317.32317,0,0,0-.48481-.00617c-.6595.51144-1.33327,1.00446-2.00026,1.50628a1.74235,1.74235,0,0,1-1.88843.207,14.17784,14.17784,0,0,0-1.57851-.63792,1.79878,1.79878,0,0,1-1.35094-1.75473c-.07277-.8545-.20685-1.70378-.31749-2.58326a20.87766,20.87766,0,0,0-4.972-.00031c-.11911.96145-.23374,1.88868-.34892,2.81584a1.63167,1.63167,0,0,1-1.2207,1.47549A12.66532,12.66532,0,0,0,97.959,33.233a1.67325,1.67325,0,0,1-1.88108-.1775c-.66373-.50608-1.33964-.99631-1.99869-1.50831a.334.334,0,0,0-.48829.00188,15.03019,15.03019,0,0,0-3.02565,3.01807.37233.37233,0,0,0,.00865.54984c.50632.64738.989,1.31321,1.48543,1.96839a1.64617,1.64617,0,0,1,.20092,1.81253,12.76227,12.76227,0,0,0-.64071,1.57722,1.77768,1.77768,0,0,1-1.71681,1.34507c-.86676.07918-1.72885.20942-2.58262.316A16.90624,16.90624,0,0,0,87.33207,47.11956Z" transform="translate(-18.98381 -22.22591)"/><path class="cls-1" d="M112.88692,44.67523a9.2613,9.2613,0,1,1-9.22193-9.31034A9.26647,9.26647,0,0,1,112.88692,44.67523Zm-2.94327-.03154a6.3181,6.3181,0,1,0-6.34483,6.30071A6.24763,6.24763,0,0,0,109.94365,44.64369Z" transform="translate(-18.98381 -22.22591)"/></svg>