<svg id="Layer_1" data-name="Layer 1" xmlns="http://www.w3.org/2000/svg" viewBox="0 0 106.03238 99.54839"><defs><style>.cls-1{fill:#231f20;}.cls-2{fill:#fff;}</style></defs><path class="cls-1" d="M108.38716,42.04838V99.85485H23.48393V42.04838h84.90323m1.96774-4H21.5162a2.03227,2.03227,0,0,0-2.03227,2.03227v61.74194a2.03227,2.03227,0,0,0,2.03227,2.03226h88.8387a2.03227,2.03227,0,0,0,2.03226-2.03226V40.08065a2.03227,2.03227,0,0,0-2.03226-2.03227Z" transform="translate(-19.48381 -22.72581)"/><rect class="cls-1" y="67.80659" width="92.90332" height="2"/><path class="cls-1" d="M.00013,68.80645H92.90335a0,0,0,0,1,0,0V79.03226A2.09677,2.09677,0,0,1,90.80658,81.129H2.0969A2.09677,2.09677,0,0,1,.00013,79.03226V68.80645a0,0,0,0,1,0,0Z"/><rect class="cls-2" x="80.29045" y="72.87097" width="4.20968" height="4.20968"/><path class="cls-1" d="M104.48381,100.30633H99.27434V95.09685h5.20947Zm-4.20947-1h3.20947V96.09685h-3.20947Z" transform="translate(-19.48381 -22.72581)"/><rect class="cls-1" x="35.41948" y="83.25806" width="21.67742" height="8.74194"/><path class="cls-1" d="M26.00013,92H66.29045A4.06452,4.06452,0,0,1,70.355,96.06452v3.48387a0,0,0,0,1,0,0H21.93561a0,0,0,0,1,0,0V96.06452A4.06452,4.06452,0,0,1,26.00013,92Z"/><circle class="cls-2" cx="84.11303" cy="21.91935" r="21.91935"/><path class="cls-1" d="M101.91093,25.6913h2.42937c.08455.02048.16807.04839.25381.06027.78762.10918,1.5792.19458,2.36256.32829a1.4839,1.4839,0,0,1,1.40224,1.4851c.12171.88857.25173,1.776.37862,2.66386a.64258.64258,0,0,0,.95755.398q1.01152-.76856,2.02026-1.54076a1.68992,1.68992,0,0,1,2.39727-.02546,25.14275,25.14275,0,0,1,3.9613,3.68894,18.017,18.017,0,0,1,1.22042,1.54685,1.623,1.623,0,0,1-.05238,2.15347c-.576.687-1.09723,1.42-1.63914,2.13541a.66.66,0,0,0,.38079.92479c.7875.11481,1.573.24923,2.36383.334,1.46.15655,1.71008.6082,1.91037,1.89575.11233.72215.20258,1.44773.30278,2.17176V46.341c-.02128.09778-.049.19465-.06281.29346-.10834.775-.19343,1.55391-.32588,2.3247a1.48571,1.48571,0,0,1-1.48675,1.40071c-.8886.12147-1.776.25161-2.66386.37855a.64171.64171,0,0,0-.39513.9588c.57406.75446,1.17408,1.4908,1.71287,2.26957a1.60837,1.60837,0,0,1,.30755.97232,2.48516,2.48516,0,0,1-.44446,1.13763,23.50807,23.50807,0,0,1-3.75884,4.04813c-.45454.40035-.93446.77515-1.42591,1.12955a1.652,1.652,0,0,1-2.24742-.035c-.67741-.56784-1.39962-1.0824-2.10472-1.617a.66122.66122,0,0,0-.9236.38366c-.11472.78752-.24951,1.573-.33413,2.36381-.15622,1.45975-.61072,1.70915-1.8972,1.90886-.7216.112-1.44655.2024-2.17.30253h-2.42937c-.09723-.02125-.19356-.049-.29183-.06272-.78791-.11029-1.58019-.195-2.36325-.33254a1.45376,1.45376,0,0,1-1.3539-1.44421c-.11032-.89072-.20361-1.78365-.32461-2.67285a.49588.49588,0,0,0-.23021-.35594c-.2447-.0838-.45926-.35348-.78721-.084q-1.0985.90276-2.26231,1.72452a1.47485,1.47485,0,0,1-.89528.31765,2.71706,2.71706,0,0,1-1.21543-.4431,23.14288,23.14288,0,0,1-4.05336-3.75672c-.40082-.45453-.77455-.93553-1.13092-1.426a1.65534,1.65534,0,0,1,.02545-2.24854c.56067-.66744,1.06614-1.38132,1.59437-2.07591a.63887.63887,0,0,0-.38862-.9622c-.788-.11431-1.57314-.2569-2.36463-.33627-1.536-.154-1.6878-.747-1.86971-1.85113-.12089-.73381-.2071-1.47334-.30883-2.21031V43.91158c.022-.11045.0493-.22015.065-.33148.10947-.77529.194-1.55491.33037-2.32537a1.45474,1.45474,0,0,1,1.44583-1.35239c.89076-.11,1.78367-.20344,2.67286-.32454a.49547.49547,0,0,0,.355-.23163c.08428-.24454.35128-.45961.08207-.787-.602-.73217-1.18049-1.48628-1.72355-2.26292a1.54454,1.54454,0,0,1-.31616-.93318,2.59,2.59,0,0,1,.44185-1.17754A23.29734,23.29734,0,0,1,90.80187,30.133c.45458-.40077.93542-.77474,1.42616-1.13077a1.655,1.655,0,0,1,2.24854.02749c.67743.56846,1.40049,1.08272,2.1059,1.6176a.65753.65753,0,0,0,.92666-.377c.115-.78788.24914-1.57386.33414-2.36506.15663-1.458.60461-1.71062,1.89656-1.91134C100.46178,25.88182,101.18712,25.79148,101.91093,25.6913Z" transform="translate(-19.48381 -22.72581)"/><path class="cls-2" d="M112.38692,45.17512a9.2613,9.2613,0,1,1-9.22193-9.31034A9.26647,9.26647,0,0,1,112.38692,45.17512Z" transform="translate(-19.48381 -22.72581)"/></svg>