<svg id="Layer_1" data-name="Layer 1" xmlns="http://www.w3.org/2000/svg" viewBox="0 0 91.87096 91.87096"><defs><style>.cls-1{fill:#010101;}</style></defs><path class="cls-1" d="M96.32979,71.23524,62.64378,48.2675a1.53033,1.53033,0,0,0-2.39324,1.26476V95.46774a1.53041,1.53041,0,0,0,2.39324,1.26476l33.686-22.96774a1.52986,1.52986,0,0,0,0-2.52952ZM63.3129,92.56921V52.43079L92.74989,72.5Z" transform="translate(-26.56452 -26.56452)"/><path class="cls-1" d="M72.5,26.56452A45.93548,45.93548,0,1,0,118.43548,72.5,45.98762,45.98762,0,0,0,72.5,26.56452Zm0,88.80859A42.87311,42.87311,0,1,1,115.37311,72.5,42.92216,42.92216,0,0,1,72.5,115.37311Z" transform="translate(-26.56452 -26.56452)"/></svg>